<?xml version="1.0" encoding="utf-8"?>
<svg xmlns="http://www.w3.org/2000/svg" viewBox="0 0 512 512">
  <g transform="matrix(1.63143,0,0,1.63143,47.0611,459.341)">
    <path
      d="M67.517,32.004C66.975,32.004 66.391,31.867 65.985,31.318L48.601,8.456L48.601,31.775L44.637,31.775L44.637,3.061C44.637,1.918 45.583,1.004 46.665,1.004C47.294,1.004 47.836,1.186 48.24,1.735L65.579,24.551L65.579,1.324L69.543,1.324L69.543,29.992C69.543,31.181 68.597,32.004 67.517,32.004"
      style="fill:rgb(26,25,24);" />
  </g>
  <g transform="matrix(1.63143,0,0,1.63143,47.0611,459.341)">
    <path
      d="M100.306,32.278C96.343,32.278 92.199,31.455 88.326,29.992L89.272,26.699C92.83,27.843 96.703,28.666 100.306,28.666C105.306,28.666 107.918,26.882 107.918,24.368C107.918,22.082 105.89,20.939 98.909,17.646C91.929,14.354 89.182,12.252 89.182,8.136C89.182,2.97 93.145,0.866 100.621,0.866C103.729,0.866 108.502,1.507 111.251,2.33L110.62,5.713C107.601,4.982 103.819,4.479 100.711,4.479C95.443,4.479 93.281,5.484 93.281,7.999C93.281,10.468 94.856,11.52 102.242,14.949C110.034,18.561 112.016,20.391 112.016,24.139C112.016,29.581 106.881,32.278 100.306,32.278"
      style="fill:rgb(26,25,24);" />
  </g>
  <g transform="matrix(1.63143,0,0,1.63143,47.0611,459.341)">
    <rect x="130.798" y="1.324" width="4.098" height="30.451" style="fill:rgb(26,25,24);" />
  </g>
  <g transform="matrix(1.63143,0,0,1.63143,47.0611,459.341)">
    <path
      d="M169.758,17.967L159.578,17.967L159.578,28.301L169.758,28.301C173.225,28.301 175.342,26.106 175.342,23.042C175.342,20.161 173.136,17.967 169.758,17.967M167.775,4.798L159.578,4.798L159.578,14.538L167.775,14.538C171.064,14.538 173.45,12.434 173.45,9.508C173.45,6.628 171.378,4.798 167.775,4.798M169.803,31.775L157.553,31.775C156.381,31.775 155.48,30.86 155.48,29.717L155.48,3.381C155.48,2.283 156.381,1.324 157.553,1.324L167.686,1.324C173.901,1.324 177.594,4.387 177.594,9.188C177.594,11.794 176.062,14.217 173.72,15.635C177.189,16.687 179.53,19.567 179.53,23.042C179.53,27.888 175.523,31.775 169.803,31.775"
      style="fill:rgb(26,25,24);" />
  </g>
  <g transform="matrix(1.63143,0,0,1.63143,47.0611,459.341)">
    <path
      d="M199.212,31.775C198.088,31.775 197.187,30.815 197.187,29.718L197.187,1.324L201.284,1.324L201.284,28.072L217.588,28.072L217.588,31.775L199.212,31.775L199.212,31.775Z"
      style="fill:rgb(26,25,24);" />
  </g>
  <g transform="matrix(1.63143,0,0,1.63143,47.0611,459.341)">
    <path
      d="M245.526,32.278C237.149,32.278 232.105,29.169 232.105,22.905C232.105,19.933 233.771,17.098 237.014,15.772C234.402,14.126 233.051,11.794 233.051,9.234C233.051,3.565 237.421,0.866 245.617,0.866C248.365,0.866 252.237,1.186 255.481,1.918L255.03,5.301C251.608,4.752 248.409,4.433 245.301,4.433C239.987,4.433 237.149,5.896 237.149,9.417C237.149,12.206 239.762,14.401 243.23,14.401L250.255,14.401C251.246,14.401 252.012,15.178 252.012,16.138C252.012,17.144 251.246,17.921 250.255,17.921L242.69,17.921C238.726,17.921 236.205,19.887 236.205,22.905C236.205,27.34 240.303,28.666 245.437,28.666C248.23,28.666 252.012,28.301 255.074,27.569L255.661,30.906C252.733,31.73 248.904,32.278 245.526,32.278"
      style="fill:rgb(26,25,24);" />
  </g>
  <g transform="matrix(1.63143,0,0,1.63143,47.0611,459.341)">
    <path
      d="M14.138,7.035L21.316,25.019L10.475,16.35L14.138,7.035L14.138,7.035ZM26.889,29.162L15.85,2.188C15.534,1.41 14.904,0.999 14.138,0.999C13.372,0.999 12.697,1.41 12.382,2.188L0.264,31.775L4.408,31.775L9.206,19.577L23.52,31.318C24.096,31.79 24.511,32.004 25.052,32.004C26.133,32.004 27.078,31.181 27.078,29.992C27.078,29.799 27.01,29.493 26.889,29.162L26.889,29.162Z"
      style="fill:rgb(26,25,24);" />
  </g>
  <g transform="matrix(1.63143,0,0,1.63143,47.0611,-0.49269)">
    <path
      d="M255.879,127.868C255.879,198.323 198.769,255.433 128.313,255.433C57.863,255.433 0.747,198.323 0.747,127.868C0.747,57.418 57.863,0.302 128.313,0.302C198.769,0.302 255.879,57.418 255.879,127.868"
      style="fill:rgb(26,25,24);" />
  </g>
  <g transform="matrix(1.63143,0,0,1.63143,47.0611,-0.49269)">
    <path
      d="M130.46,78.229L163.472,159.705L113.608,120.427L130.46,78.229L130.46,78.229ZM189.105,178.474L138.326,56.272C136.876,52.748 133.978,50.883 130.46,50.883C126.936,50.883 123.826,52.748 122.377,56.272L66.644,190.312L85.709,190.312L107.771,135.047L173.61,188.237C176.258,190.378 178.169,191.346 180.652,191.346C185.626,191.346 189.974,187.617 189.974,182.235C189.974,181.359 189.664,179.969 189.104,178.474L189.105,178.474Z"
      style="fill:rgb(255,255,255);" />
  </g>
</svg>