<?xml version="1.0" encoding="utf-8"?>
<svg xmlns="http://www.w3.org/2000/svg" viewBox="0 0 512 512">
  <defs>
    <linearGradient id="_Linear1" x1="0" y1="0" x2="1" y2="0" gradientUnits="userSpaceOnUse"
      gradientTransform="matrix(385.89,222.79,-222.79,385.89,1264.31,912.049)">
      <stop offset="0" style="stop-color:rgb(170,92,195);stop-opacity:1" />
      <stop offset="1" style="stop-color:rgb(0,164,220);stop-opacity:1" />
    </linearGradient>
    <linearGradient id="_Linear2" x1="0" y1="0" x2="1" y2="0" gradientUnits="userSpaceOnUse"
      gradientTransform="matrix(385.89,222.79,-222.79,385.89,1264.31,912.049)">
      <stop offset="0" style="stop-color:rgb(170,92,195);stop-opacity:1" />
      <stop offset="1" style="stop-color:rgb(0,164,220);stop-opacity:1" />
    </linearGradient>
  </defs>
  <g id="inner-shape" transform="matrix(1.10021,0,0,1.10021,-1298.02,-800.186)">
    <path
      d="M1412.5,905.6C1392.1,905.6 1326.3,1024.9 1336.3,1045C1346.3,1065.1 1478.8,1064.9 1488.7,1045C1498.6,1025.1 1432.9,905.6 1412.5,905.6Z"
      style="fill:url(#_Linear1);" />
  </g>
  <g id="outer-shape" transform="matrix(1.10021,0,0,1.10021,-1298.02,-800.186)">
    <path
      d="M1412.5,727.3C1350.9,727.3 1152.7,1086.7 1182.9,1147.4C1213.1,1208.1 1612.2,1207.4 1642.1,1147.4C1672,1087.4 1474,727.3 1412.5,727.3ZM1562.9,1094.8C1543.3,1134.1 1281.8,1134.6 1262,1094.8C1242.2,1055 1372.1,819.5 1412.5,819.5C1452.9,819.5 1582.5,1055.4 1562.9,1094.8Z"
      style="fill:url(#_Linear2);" />
  </g>
</svg>