<?xml version="1.0" encoding="utf-8"?>
<svg xmlns="http://www.w3.org/2000/svg" viewBox="0 0 512 512">
  <defs>
    <linearGradient id="_Linear1" x1="0" y1="0" x2="1" y2="0" gradientUnits="userSpaceOnUse"
      gradientTransform="matrix(123.178,-123.178,123.178,123.178,47.53,79.101)">
      <stop offset="0" style="stop-color:rgb(227,41,41);stop-opacity:1" />
      <stop offset="1" style="stop-color:rgb(255,141,48);stop-opacity:1" />
    </linearGradient>
  </defs>
  <g transform="matrix(2.30216,0,0,2.30216,0,211.108)">
    <path
      d="M146.7,29.5L135,29.5L132,38.5L125.5,38.5L138.9,0L146.9,0L160.3,38.5L153.2,38.5L142.6,6.9L136.8,23.8L145,23.8L146.7,29.5ZM29.7,0L29.7,25.4C29.7,34.3 23.9,39 14.8,39C5.8,39 0,34.3 0,25.4L0,0L6.5,0L6.5,25.4C6.5,30.6 9.7,33.3 14.7,33.3C19.9,33.3 23.1,30.6 23.1,25.4L23.1,0L29.7,0ZM50.9,12L50.9,38.5L44.4,38.5L44.4,0L50.5,0L67.5,26.5L67.5,0L74,0L74,38.5L67.9,38.5L50.9,12ZM171.3,0L177.8,0L177.8,38.5L171.3,38.5L171.3,0ZM222.4,24.7C222.4,33.7 216.5,38.5 207.2,38.5L192.7,38.5L192.7,0L207.3,0C216.5,0 222.4,4.8 222.4,13.8L222.4,24.7ZM215.8,13.8C215.8,8.5 212.5,5.7 207.3,5.7L199.2,5.7L199.2,32.8L207.2,32.8C212.5,32.8 215.8,30 215.8,24.7L215.8,13.8ZM108.3,23.9C112.6,22.3 115.2,18.6 115.2,12.4C115.2,3.7 110.1,-0 102.4,-0L88.8,-0L88.8,38.5L95.3,38.5L95.3,5.7L102.2,5.7C106,5.7 108.4,7.5 108.4,12.4C108.4,17.3 106,19.2 102.2,19.2L98.8,19.2L108,38.6L115.5,38.6L108.3,23.9Z"
      style="fill:url(#_Linear1);" />
  </g>
</svg>