<?xml version="1.0" encoding="utf-8"?>
<svg xmlns="http://www.w3.org/2000/svg" viewBox="0 0 512 512">
  <defs>
    <linearGradient id="_Linear1" x1="0" y1="0" x2="1" y2="0" gradientUnits="userSpaceOnUse"
      gradientTransform="matrix(67.06,0,0,67.06,2.71,20.04)">
      <stop offset="0" style="stop-color:rgb(18,178,18);stop-opacity:1" />
      <stop offset="1" style="stop-color:rgb(0,255,0);stop-opacity:1" />
    </linearGradient>
  </defs>
  <g transform="matrix(3.94058,0,0,3.94058,81.984,0)">
    <path
      d="M36.56,39.93C20.34,38.2 4,25.94 2.71,0C27.88,0 41.34,14.9 42.64,38.51C47.4,10.19 69.71,13.51 69.71,13.51C70.77,29.56 57.59,39.29 42.64,40.1C38.44,31.25 13.28,9.54 13.28,9.54C13.267,9.529 13.251,9.523 13.235,9.523C13.196,9.523 13.165,9.555 13.165,9.593C13.165,9.603 13.167,9.612 13.17,9.62C13.173,9.628 37.45,30.77 36.56,39.93"
      style="fill:url(#_Linear1);" />
  </g>
  <g transform="matrix(3.94058,0,0,3.94058,81.984,0)">
    <path
      d="M44.16,129.93C42.59,129.84 27.94,129.28 27.05,112.82C26.33,102.82 34.23,95.45 34.23,85.74C32.44,61.53 0,64.53 0,85.74C-0.013,91.039 2.086,96.13 5.83,99.88L30,124.06C33.75,127.804 38.841,129.903 44.14,129.89"
      style="fill:rgb(152,2,0);" />
  </g>
  <g transform="matrix(3.94058,0,0,3.94058,81.984,0)">
    <path
      d="M88.32,85.75C88.23,87.32 87.67,101.97 71.21,102.86C61.21,103.58 53.83,95.68 44.13,95.68C19.92,97.47 22.92,129.9 44.13,129.9C49.429,129.913 54.52,127.814 58.27,124.07L82.46,99.9C86.204,96.15 88.303,91.059 88.29,85.76"
      style="fill:rgb(255,0,0);" />
  </g>
  <g transform="matrix(3.94058,0,0,3.94058,81.984,0)">
    <path
      d="M44.16,41.59C45.73,41.68 60.38,42.24 61.27,58.7C61.99,68.7 54.09,76.07 54.09,85.78C55.88,109.99 88.31,106.99 88.31,85.78C88.323,80.481 86.224,75.39 82.48,71.64L58.3,47.45C54.55,43.706 49.459,41.607 44.16,41.62"
      style="fill:rgb(152,2,0);" />
  </g>
  <g transform="matrix(3.94058,0,0,3.94058,81.984,0)">
    <path
      d="M0.08,85.75C0.17,84.18 0.73,69.53 17.19,68.64C27.19,67.92 34.57,75.82 44.27,75.82C68.48,74 65.48,41.6 44.27,41.6C38.971,41.587 33.88,43.686 30.13,47.43L5.94,71.61C2.196,75.36 0.097,80.451 0.11,85.75"
      style="fill:rgb(255,0,0);" />
  </g>
</svg>