<?xml version="1.0" encoding="utf-8"?>
<svg xmlns="http://www.w3.org/2000/svg" viewBox="0 0 512 512">
  <g transform="matrix(2.89843,0,0,2.89843,-18.4609,-6.30779)">
    <path
      d="M167.563,43.099C166.553,39.867 164.129,37.241 161.099,35.625L99.488,6.133C97.872,5.325 96.054,5.123 94.438,5.123C92.822,5.123 91.004,5.123 89.388,5.527L27.777,35.221C24.746,36.635 22.524,39.261 21.716,42.695L6.566,109.155C5.96,112.589 6.768,116.023 8.788,118.851L51.411,171.574C53.835,173.998 57.269,175.614 60.703,175.816L128.577,175.816C132.213,176.22 135.647,174.604 137.869,171.574L180.492,118.851C182.512,116.023 183.32,112.589 182.916,109.155L167.563,43.099Z"
      style="fill:rgb(50,109,230);" />
  </g>
  <g transform="matrix(2.89843,0,0,2.89843,-18.4609,-6.30779)">
    <path
      d="M158.069,106.529C157.867,106.529 157.665,106.529 157.665,106.327C157.665,106.125 157.261,106.125 156.857,106.125C156.049,105.923 155.241,105.923 154.433,105.923C154.029,105.923 153.625,105.923 153.221,105.721L153.019,105.721C150.797,105.519 148.373,105.115 146.151,104.509C145.545,104.307 144.939,103.701 144.737,103.095C144.939,103.095 144.737,103.095 144.737,103.095L143.121,102.691C143.929,96.833 143.525,90.772 142.313,84.914C140.899,79.056 138.475,73.4 135.243,68.35L136.455,67.138L136.455,66.936C136.455,66.33 136.657,65.522 137.061,65.118C138.879,63.502 140.697,62.29 142.717,61.078C143.121,60.876 143.525,60.674 143.929,60.472C144.737,60.068 145.343,59.664 146.151,59.26C146.353,59.058 146.555,59.058 146.757,58.856C146.959,58.654 146.757,58.654 146.757,58.452C148.575,57.038 148.979,54.614 147.565,52.796C146.959,51.988 145.747,51.382 144.737,51.382C143.727,51.382 142.717,51.786 141.909,52.392L141.707,52.594C141.505,52.796 141.303,52.998 141.101,52.998C140.495,53.604 139.889,54.21 139.485,54.816C139.283,55.22 138.879,55.422 138.677,55.624C137.263,57.24 135.445,58.856 133.627,60.068C133.223,60.27 132.819,60.472 132.415,60.472C132.213,60.472 131.809,60.472 131.607,60.27L131.405,60.27L129.789,61.28C128.173,59.664 126.355,58.048 124.739,56.432C117.264,50.574 107.972,46.937 98.478,45.927L98.276,44.311L98.276,44.513C97.67,44.109 97.468,43.503 97.266,42.897C97.266,40.675 97.266,38.453 97.67,36.029L97.67,35.827C97.67,35.423 97.872,35.019 97.872,34.615C98.074,33.807 98.074,32.999 98.276,32.191L98.276,30.979C98.478,28.959 96.862,26.939 94.842,26.737C93.63,26.535 92.418,27.141 91.408,28.151C90.6,28.959 90.196,29.969 90.196,30.979L90.196,31.989C90.196,32.797 90.398,33.605 90.6,34.413C90.802,34.817 90.802,35.221 90.802,35.625L90.802,35.827C91.206,38.049 91.206,40.271 91.206,42.695C91.004,43.301 90.802,43.907 90.196,44.311L90.196,44.715L89.994,46.331C87.772,46.533 85.55,46.937 83.126,47.342C73.631,49.362 64.945,54.412 58.279,61.482L57.067,60.674L56.865,60.674C56.663,60.674 56.461,60.876 56.057,60.876C55.653,60.876 55.249,60.674 54.845,60.472C53.027,59.058 51.209,57.442 49.795,55.826C49.593,55.422 49.189,55.22 48.987,55.018C48.381,54.412 47.977,53.806 47.371,53.2C47.169,52.998 46.967,52.998 46.765,52.796L46.563,52.594C45.755,51.988 44.745,51.584 43.735,51.584C42.523,51.584 41.513,51.988 40.907,52.998C39.695,54.816 40.099,57.24 41.715,58.654C41.917,58.654 41.917,58.856 41.917,58.856C41.917,58.856 42.321,59.26 42.523,59.26C43.129,59.664 43.937,60.068 44.745,60.472C45.149,60.674 45.553,60.876 45.957,61.078C47.977,62.29 49.997,63.502 51.613,65.118C52.017,65.522 52.421,66.33 52.219,66.936L52.219,66.734L53.431,67.946C53.229,68.35 53.027,68.552 52.825,68.956C46.563,78.854 43.937,90.57 45.755,102.085L44.139,102.489C44.139,102.691 43.937,102.691 43.937,102.691C43.735,103.297 43.129,103.701 42.523,104.105C40.301,104.711 38.079,105.115 35.655,105.317C35.251,105.317 34.847,105.317 34.443,105.519C33.635,105.519 32.827,105.721 32.019,105.721C31.817,105.721 31.615,105.923 31.211,105.923C31.009,105.923 31.009,105.923 30.807,106.125C28.585,106.529 27.171,108.549 27.575,110.771C27.979,112.589 29.797,113.801 31.615,113.599C32.019,113.599 32.221,113.599 32.625,113.397C32.827,113.397 32.827,113.397 32.827,113.195C32.827,112.993 33.433,113.195 33.635,113.195C34.443,112.993 35.251,112.589 35.857,112.387C36.261,112.185 36.665,111.983 37.069,111.983L37.271,111.983C39.493,111.175 41.513,110.569 43.937,110.165L44.139,110.165C44.745,110.165 45.351,110.367 45.755,110.771C45.957,110.771 45.957,110.973 45.957,110.973L47.775,110.771C50.805,120.063 56.461,128.345 64.339,134.405C66.157,135.819 67.773,137.031 69.793,138.041L68.783,139.455C68.783,139.657 68.985,139.657 68.985,139.657C69.389,140.263 69.389,141.071 69.187,141.677C68.379,143.697 67.167,145.718 65.955,147.536L65.955,147.738C65.753,148.142 65.551,148.344 65.147,148.748C64.743,149.152 64.339,149.96 63.733,150.768C63.531,150.97 63.531,151.172 63.329,151.374C63.329,151.374 63.329,151.576 63.127,151.576C62.117,153.596 62.925,156.02 64.743,157.03C65.147,157.232 65.753,157.434 66.157,157.434C67.773,157.434 69.187,156.424 69.995,155.01C69.995,155.01 69.995,154.808 70.197,154.808C70.197,154.606 70.399,154.404 70.601,154.202C70.803,153.394 71.207,152.788 71.409,151.98L71.813,150.768C72.419,148.546 73.429,146.526 74.44,144.506C74.844,143.899 75.45,143.495 76.056,143.293C76.258,143.293 76.258,143.293 76.258,143.091L77.066,141.475C82.722,143.697 88.58,144.708 94.64,144.708C98.276,144.708 101.912,144.303 105.548,143.293C107.77,142.889 109.992,142.081 112.012,141.475L112.82,142.889C113.022,142.889 113.022,142.889 113.022,143.091C113.628,143.293 114.234,143.697 114.638,144.303C115.648,146.324 116.658,148.344 117.264,150.566L117.264,150.768L117.668,151.98C117.87,152.788 118.072,153.596 118.476,154.202C118.678,154.404 118.678,154.606 118.88,154.808C118.88,154.808 118.88,155.01 119.082,155.01C119.89,156.424 121.304,157.434 122.92,157.434C123.527,157.434 123.931,157.232 124.537,157.03C125.345,156.626 126.153,155.818 126.355,154.808C126.557,153.798 126.557,152.788 126.153,151.778C126.153,151.576 125.951,151.576 125.951,151.576C125.951,151.374 125.749,151.172 125.547,150.97C125.143,150.162 124.739,149.556 124.133,148.95C123.931,148.546 123.729,148.344 123.325,147.94L123.325,147.536C121.91,145.718 120.9,143.697 120.092,141.677C119.89,141.071 119.89,140.263 120.294,139.657C120.294,139.455 120.496,139.455 120.496,139.455L119.89,137.839C130.193,131.577 138.071,121.881 141.707,110.367L143.323,110.569C143.525,110.569 143.525,110.367 143.525,110.367C143.929,109.963 144.535,109.761 145.141,109.761L145.343,109.761C147.565,110.165 149.787,110.771 151.807,111.579L152.009,111.579C152.413,111.781 152.817,111.983 153.221,111.983C154.029,112.387 154.635,112.791 155.443,112.993C155.645,112.993 155.847,113.195 156.251,113.195C156.453,113.195 156.453,113.195 156.655,113.397C157.059,113.599 157.261,113.599 157.665,113.599C159.483,113.599 161.099,112.387 161.705,110.771C161.503,108.549 159.887,106.933 158.069,106.529ZM99.69,100.267L94.236,102.893L88.782,100.267L87.368,94.408L91.206,89.56L97.266,89.56L101.104,94.408L99.69,100.267ZM132.617,87.136C133.627,91.378 133.829,95.62 133.425,99.863L114.234,94.408C112.416,94.004 111.406,92.186 111.81,90.368C112.012,89.762 112.214,89.358 112.618,88.954L127.769,75.218C129.991,78.854 131.607,82.894 132.617,87.136ZM121.708,67.744L105.144,79.46C103.73,80.268 101.71,80.066 100.7,78.652C100.296,78.248 100.094,77.844 100.094,77.238L98.882,56.836C107.77,57.846 115.648,61.684 121.708,67.744ZM85.146,57.442L89.186,56.634L88.176,76.834C88.176,78.652 86.56,80.066 84.742,80.066C84.136,80.066 83.732,79.864 83.126,79.662L66.359,67.744C71.611,62.694 78.076,59.058 85.146,57.442ZM60.501,75.218L75.45,88.55C76.864,89.762 77.066,91.782 75.854,93.196C75.45,93.802 75.046,94.004 74.237,94.206L54.643,99.863C54.037,91.378 56.057,82.692 60.501,75.218ZM57.067,109.357L77.066,105.923C78.682,105.923 80.298,106.933 80.5,108.549C80.702,109.155 80.702,109.963 80.298,110.569L72.621,129.153C65.551,124.507 59.895,117.437 57.067,109.357ZM102.922,134.405C100.094,135.011 97.266,135.415 94.236,135.415C89.994,135.415 85.55,134.607 81.51,133.395L91.408,115.417C92.418,114.205 94.034,113.801 95.448,114.609C96.054,115.013 96.458,115.417 97.064,116.023L106.76,133.597C105.548,133.799 104.336,134.001 102.922,134.405ZM127.567,116.831C124.537,121.679 120.294,125.921 115.446,128.951L107.568,109.963C107.164,108.347 107.972,106.731 109.386,106.125C109.992,105.923 110.598,105.721 111.204,105.721L131.405,109.155C130.395,111.983 129.183,114.609 127.567,116.831Z"
      style="fill:rgb(255,255,255);" />
  </g>
</svg>