<?xml version="1.0" encoding="utf-8"?>
<svg xmlns="http://www.w3.org/2000/svg" viewBox="0 0 512 512">
  <g transform="matrix(2.00783,0,0,2.00783,-39.9789,-3.99596)">
    <path
      d="M97.021,99.016L145.453,71.054C146.665,70.354 148.159,70.354 149.371,71.054L197.804,99.016C199.015,99.716 199.763,101.009 199.763,102.409L199.763,158.333C199.763,159.732 199.015,161.026 197.804,161.727L149.371,189.689C148.159,190.389 146.665,190.389 145.453,189.689L97.021,161.727C95.809,161.027 95.062,159.733 95.062,158.333L95.062,102.409C95.063,101.009 95.81,99.716 97.021,99.016"
      style="fill:rgb(128,128,242);" />
  </g>
  <g transform="matrix(2.00783,0,0,2.00783,-39.9789,-3.99596)">
    <path
      d="M273.336,124.488L215.469,23.816C213.367,20.176 209.484,17.491 205.281,17.491L89.545,17.491C85.341,17.491 81.457,20.176 79.355,23.816L21.488,124.266C19.386,127.907 19.386,132.502 21.488,136.143L79.355,235.99C81.457,239.63 85.341,241.491 89.545,241.491L205.28,241.491C209.483,241.491 213.367,239.686 215.468,236.045L273.335,136.035C275.439,132.396 275.439,128.128 273.336,124.488M225.419,172.898C225.419,174.378 224.528,175.747 223.245,176.488L149.535,219.015C148.253,219.755 146.647,219.755 145.365,219.015L71.598,176.488C70.316,175.747 69.419,174.379 69.419,172.898L69.419,87.843C69.419,86.362 70.303,84.994 71.586,84.253L145.293,41.726C146.575,40.985 148.179,40.985 149.461,41.726L223.233,84.253C224.516,84.994 225.419,86.362 225.419,87.843L225.419,172.898Z"
      style="fill:rgb(75,50,195);" />
  </g>
</svg>