<?xml version="1.0" encoding="utf-8"?>
<svg xmlns="http://www.w3.org/2000/svg" viewBox="0 0 512 512">
  <g transform="matrix(10.6215,0,0,10.6215,-541.654,140.226)">
    <path d="M94.7,10.6L89.1,9.3L88.1,8.9L62.4,9.1L62.4,21.5L94.7,21.6L94.7,10.6Z" style="fill:rgb(255,255,255);" />
  </g>
  <g transform="matrix(10.6215,0,0,10.6215,-541.654,140.226)">
    <path
      d="M84.2,20.4C84.526,19.537 84.414,18.566 83.9,17.8C83.374,17.169 82.618,16.773 81.8,16.7L64.4,16.5C64.3,16.5 64.2,16.4 64.1,16.4C64.053,16.365 64.025,16.309 64.025,16.25C64.025,16.191 64.053,16.135 64.1,16.1C64.2,15.9 64.3,15.8 64.5,15.8L82,15.6C84.259,15.349 86.214,13.893 87.1,11.8L88.1,9.2C88.1,9.1 88.2,9 88.1,8.9C86.936,3.716 82.294,-0 76.98,-0C72.123,-0 67.775,3.105 66.2,7.7C65.155,6.954 63.88,6.6 62.6,6.7C60.189,6.969 58.269,8.889 58,11.3C57.933,11.901 57.967,12.51 58.1,13.1C54.172,13.209 50.999,16.47 51,20.4C50.984,20.769 51.017,21.14 51.1,21.5C51.109,21.661 51.239,21.791 51.4,21.8L83.5,21.8C83.7,21.8 83.9,21.7 83.9,21.5L84.2,20.4Z"
      style="fill:rgb(244,129,32);" />
  </g>
  <g transform="matrix(10.6215,0,0,10.6215,-541.654,140.226)">
    <path
      d="M89.7,9.2L89.2,9.2C89.1,9.2 89,9.3 88.9,9.4L88.2,11.8C87.874,12.663 87.986,13.634 88.5,14.4C89.026,15.031 89.782,15.427 90.6,15.5L94.3,15.7C94.4,15.7 94.5,15.8 94.6,15.8C94.647,15.835 94.675,15.891 94.675,15.95C94.675,16.009 94.647,16.065 94.6,16.1C94.5,16.3 94.4,16.4 94.2,16.4L90.4,16.6C88.141,16.851 86.186,18.307 85.3,20.4L85.1,21.3C85,21.4 85.1,21.6 85.3,21.6L98.5,21.6C98.512,21.602 98.525,21.603 98.537,21.603C98.683,21.603 98.803,21.483 98.803,21.337C98.803,21.325 98.802,21.312 98.8,21.3C99.038,20.453 99.172,19.58 99.2,18.7C99.167,13.501 94.899,9.233 89.7,9.2"
      style="fill:rgb(250,173,63);" />
  </g>
</svg>