<?xml version="1.0" encoding="utf-8"?>
<svg xmlns="http://www.w3.org/2000/svg" viewBox="0 0 512 512">
  <g transform="matrix(22.2609,0,0,22.2609,256,256)">
    <circle cx="0" cy="0" r="2.05" style="fill:rgb(20,157,202);" />
  </g>
  <g transform="matrix(22.2609,0,0,22.2609,256,256)">
    <path
      d="M0,-4.7C3.738,-4.7 7.052,-3.993 9.107,-2.923C10.652,-2.119 11.5,-1.073 11.5,0C11.5,1.073 10.652,2.119 9.107,2.923C7.052,3.993 3.738,4.7 0,4.7C-3.738,4.7 -7.052,3.993 -9.107,2.923C-10.652,2.119 -11.5,1.073 -11.5,0C-11.5,-1.073 -10.652,-2.119 -9.107,-2.923C-7.052,-3.993 -3.738,-4.7 0,-4.7ZM0,-3.7C-3.547,-3.7 -6.696,-3.052 -8.646,-2.036C-9.249,-1.722 -9.733,-1.375 -10.062,-0.998C-10.338,-0.683 -10.5,-0.351 -10.5,0C-10.5,0.351 -10.338,0.683 -10.062,0.998C-9.733,1.375 -9.249,1.722 -8.646,2.036C-6.696,3.052 -3.547,3.7 0,3.7C3.547,3.7 6.696,3.052 8.646,2.036C9.249,1.722 9.733,1.375 10.062,0.998C10.338,0.683 10.5,0.351 10.5,0C10.5,-0.351 10.338,-0.683 10.062,-0.998C9.733,-1.375 9.249,-1.722 8.646,-2.036C6.696,-3.052 3.547,-3.7 0,-3.7Z"
      style="fill:rgb(20,157,202);" />
  </g>
  <g transform="matrix(11.1304,19.2785,-19.2785,11.1304,256,256)">
    <path
      d="M-0,-4.7C3.738,-4.7 7.052,-3.993 9.107,-2.923C10.652,-2.119 11.5,-1.073 11.5,0C11.5,1.073 10.652,2.119 9.107,2.923C7.052,3.993 3.738,4.7 0,4.7C-3.738,4.7 -7.052,3.993 -9.107,2.923C-10.652,2.119 -11.5,1.073 -11.5,0C-11.5,-1.073 -10.652,-2.119 -9.107,-2.923C-7.052,-3.993 -3.738,-4.7 -0,-4.7ZM0,-3.7C-3.547,-3.7 -6.696,-3.052 -8.646,-2.036C-9.249,-1.722 -9.733,-1.375 -10.062,-0.998C-10.338,-0.683 -10.5,-0.351 -10.5,0C-10.5,0.351 -10.338,0.683 -10.062,0.998C-9.733,1.375 -9.249,1.722 -8.646,2.036C-6.696,3.052 -3.547,3.7 0,3.7C3.547,3.7 6.696,3.052 8.646,2.036C9.249,1.722 9.733,1.375 10.062,0.998C10.338,0.683 10.5,0.351 10.5,-0C10.5,-0.351 10.338,-0.683 10.062,-0.998C9.733,-1.375 9.249,-1.722 8.646,-2.036C6.696,-3.052 3.547,-3.7 0,-3.7Z"
      style="fill:rgb(20,157,202);" />
  </g>
  <g transform="matrix(-11.1304,19.2785,-19.2785,-11.1304,256,256)">
    <path
      d="M-0,-4.7C3.738,-4.7 7.052,-3.993 9.107,-2.923C10.652,-2.119 11.5,-1.073 11.5,0C11.5,1.073 10.652,2.119 9.107,2.923C7.052,3.993 3.738,4.7 0,4.7C-3.738,4.7 -7.052,3.993 -9.107,2.923C-10.652,2.119 -11.5,1.073 -11.5,0C-11.5,-1.073 -10.652,-2.119 -9.107,-2.923C-7.052,-3.993 -3.738,-4.7 -0,-4.7ZM-0,-3.7C-3.547,-3.7 -6.696,-3.052 -8.646,-2.036C-9.249,-1.722 -9.733,-1.375 -10.062,-0.998C-10.338,-0.683 -10.5,-0.351 -10.5,0C-10.5,0.351 -10.338,0.683 -10.062,0.998C-9.733,1.375 -9.249,1.722 -8.646,2.036C-6.696,3.052 -3.547,3.7 0,3.7C3.547,3.7 6.696,3.052 8.646,2.036C9.249,1.722 9.733,1.375 10.062,0.998C10.338,0.683 10.5,0.351 10.5,0C10.5,-0.351 10.338,-0.683 10.062,-0.998C9.733,-1.375 9.249,-1.722 8.646,-2.036C6.696,-3.052 3.547,-3.7 -0,-3.7Z"
      style="fill:rgb(20,157,202);" />
  </g>
</svg>