<?xml version="1.0" encoding="utf-8"?>
<svg xmlns="http://www.w3.org/2000/svg" viewBox="0 0 512 512">
  <g transform="matrix(4.21451,0,0,4.21451,-42.1451,46.1117)">
    <path
      d="M70.835,10C58.243,10 47.57,18.537 44.262,30.103C41.387,23.968 35.157,19.67 27.981,19.67C18.112,19.67 10,27.782 10,37.651C10,47.52 18.112,55.636 27.981,55.636C35.157,55.636 41.387,51.335 44.262,45.199C47.57,56.766 58.243,65.306 70.835,65.306C83.334,65.306 93.953,56.895 97.345,45.458C100.273,51.455 106.426,55.636 113.5,55.636C123.369,55.636 131.485,47.52 131.485,37.651C131.485,27.782 123.369,19.67 113.5,19.67C106.426,19.67 100.273,23.848 97.345,29.844C93.953,18.408 83.334,10 70.835,10ZM70.835,20.555C80.341,20.555 87.935,28.145 87.935,37.651C87.935,47.157 80.341,54.75 70.835,54.75C61.329,54.75 53.739,47.157 53.739,37.651C53.739,28.145 61.329,20.555 70.835,20.555ZM27.981,30.225C32.146,30.225 35.41,33.486 35.41,37.651C35.41,41.816 32.146,45.08 27.981,45.08C23.816,45.08 20.555,41.816 20.555,37.651C20.555,33.486 23.816,30.225 27.981,30.225ZM113.5,30.225C117.665,30.225 120.93,33.486 120.93,37.651C120.93,41.816 117.665,45.08 113.5,45.08C109.336,45.08 106.075,41.816 106.075,37.651C106.075,33.486 109.336,30.225 113.5,30.225Z"
      style="fill:rgb(0,130,201);" />
  </g>
  <g transform="matrix(4.21451,0,0,4.21451,-42.1451,46.1117)">
    <path
      d="M22.651,73.647C22.3,73.647 22.149,73.847 22.149,74.198L22.149,88.751C22.149,89.102 22.3,89.3 22.651,89.3L23.054,89.3C23.405,89.3 23.603,89.102 23.603,88.751L23.603,76.666L31.547,88.995C31.582,89.049 31.619,89.085 31.657,89.124C31.668,89.137 31.676,89.151 31.689,89.163C31.723,89.194 31.76,89.21 31.796,89.229C31.817,89.24 31.832,89.255 31.855,89.263C31.871,89.268 31.887,89.265 31.904,89.27C31.96,89.284 32.017,89.299 32.084,89.299L32.485,89.299C32.836,89.299 32.988,89.101 32.988,88.75L32.988,74.198C32.988,73.847 32.836,73.646 32.485,73.646L32.084,73.646C31.733,73.646 31.533,73.847 31.533,74.198L31.533,86.283L23.589,73.955C23.562,73.913 23.529,73.887 23.499,73.854C23.407,73.725 23.262,73.647 23.054,73.647L22.651,73.647ZM118.033,73.847C117.682,73.847 117.833,74.047 117.833,74.399L117.833,79.366C117.833,79.868 117.881,80.218 117.881,80.218L117.833,80.218C117.833,80.218 116.879,78.012 114.22,78.012C111.31,78.012 109.251,80.32 109.352,83.731C109.352,87.143 111.208,89.503 114.168,89.503C117.028,89.503 117.982,87.193 117.982,87.193L118.033,87.193C118.033,87.193 117.933,87.495 117.933,87.896L117.933,88.748C117.933,89.099 118.133,89.251 118.484,89.251L118.836,89.251C119.187,89.251 119.336,89.051 119.336,88.699L119.336,74.399C119.336,74.047 118.784,73.847 118.433,73.847L118.033,73.847ZM79.046,73.898C78.695,73.898 78.897,74.099 78.897,74.45L78.897,86.742C78.897,89.15 80.501,89.451 81.405,89.451C81.806,89.451 81.956,89.251 81.956,88.9L81.956,88.548C81.956,88.197 81.756,88.048 81.505,88.048C81.003,87.997 80.352,87.846 80.352,86.441L80.352,74.45C80.352,74.099 79.8,73.898 79.449,73.898L79.046,73.898ZM61.035,75.202C60.684,75.202 60.483,75.402 60.483,75.754L60.483,85.287C60.483,87.896 61.939,89.351 64.348,89.351C64.799,89.351 64.948,89.202 64.948,88.851L64.948,88.548C64.948,88.147 64.799,88.046 64.348,87.996C63.495,87.946 61.938,87.645 61.938,85.086L61.938,79.567L64.196,79.567C64.548,79.567 64.748,79.418 64.748,79.066L64.748,78.915C64.748,78.564 64.548,78.363 64.196,78.363L61.938,78.363L61.938,75.754C61.938,75.402 61.789,75.202 61.438,75.202L61.035,75.202ZM41.051,78.012C38.041,78.012 35.63,80.17 35.58,83.783C35.58,87.195 38.09,89.551 41.351,89.551C43.107,89.551 44.411,88.799 45.013,88.348C45.264,88.147 45.315,87.896 45.164,87.645L45.013,87.396C44.863,87.095 44.614,87.044 44.312,87.244C43.811,87.646 42.805,88.248 41.4,88.248C39.142,88.248 37.185,86.641 37.135,83.832L45.113,83.832C45.414,83.832 45.665,83.581 45.665,83.28C45.665,80.119 44.011,78.012 41.051,78.012ZM72.223,78.012C68.962,78.012 66.453,80.42 66.403,83.832C66.403,87.243 68.913,89.603 72.174,89.603C74.181,89.603 75.536,88.648 76.088,88.196C76.339,87.946 76.387,87.746 76.237,87.445L76.088,87.244C75.887,86.943 75.686,86.892 75.385,87.093C74.883,87.545 73.83,88.248 72.274,88.248C69.866,88.248 67.958,86.441 67.958,83.832C67.958,81.172 69.866,79.367 72.274,79.367C73.579,79.367 74.531,80.019 75.033,80.37C75.334,80.571 75.584,80.571 75.785,80.27L75.936,80.018C76.187,79.717 76.136,79.467 75.885,79.267C75.333,78.815 74.13,78.012 72.223,78.012L72.223,78.012ZM89.182,78.012C85.971,78.012 83.362,80.47 83.362,83.731C83.362,87.043 85.971,89.551 89.182,89.551C92.394,89.551 95.002,87.043 95.002,83.731C95.002,80.47 92.394,78.012 89.182,78.012ZM56.724,78.18C56.601,78.2 56.483,78.282 56.37,78.417L54.339,80.836L52.82,82.648L50.518,79.906L49.271,78.417C49.158,78.282 49.03,78.209 48.897,78.197C48.764,78.187 48.626,78.236 48.492,78.349L48.184,78.607C47.915,78.833 47.929,79.083 48.155,79.352L50.186,81.771L51.871,83.78L49.405,86.717C49.402,86.719 49.401,86.722 49.4,86.724L48.155,88.205C47.929,88.474 47.954,88.758 48.223,88.984L48.531,89.24C48.8,89.466 49.045,89.409 49.271,89.14L51.299,86.721L52.82,84.91L55.122,87.654C55.123,87.656 55.126,87.658 55.127,87.659L56.37,89.143C56.596,89.412 56.879,89.435 57.149,89.209L57.456,88.953C57.725,88.727 57.711,88.477 57.485,88.208L55.454,85.786L53.77,83.78L56.235,80.84C56.238,80.838 56.239,80.836 56.24,80.834L57.485,79.352C57.711,79.083 57.686,78.799 57.417,78.573L57.109,78.317C56.975,78.204 56.847,78.161 56.724,78.18L56.724,78.18ZM97.964,78.263C97.612,78.263 97.461,78.464 97.461,78.815L97.461,85.287C97.461,88.147 99.568,89.551 102.177,89.551C104.786,89.551 106.894,88.147 106.894,85.287L106.894,78.815C106.944,78.464 106.744,78.263 106.393,78.263L105.99,78.263C105.639,78.263 105.439,78.464 105.439,78.815L105.439,84.886C105.439,86.592 104.335,88.148 102.177,88.148C100.07,88.148 98.916,86.592 98.916,84.886L98.916,78.815C98.916,78.464 98.715,78.263 98.364,78.263L97.964,78.263ZM41,79.267C42.605,79.267 44.009,80.42 44.11,82.728L37.187,82.728C37.538,80.47 39.143,79.267 41,79.267ZM89.182,79.367C91.541,79.367 93.447,81.223 93.447,83.732C93.447,86.341 91.541,88.248 89.182,88.248C86.824,88.248 84.916,86.291 84.866,83.732C84.866,81.273 86.824,79.367 89.182,79.367ZM114.32,79.367C116.678,79.367 117.833,81.525 117.833,83.783C117.833,86.944 116.125,88.248 114.269,88.248C112.211,88.248 110.808,86.492 110.758,83.783C110.758,80.973 112.363,79.367 114.32,79.367Z"
      style="fill:rgb(0,130,201);" />
  </g>
</svg>