<?xml version="1.0" encoding="utf-8"?>
<svg xmlns="http://www.w3.org/2000/svg" viewBox="0 0 512 512">
  <defs>
    <radialGradient id="_Radial1" cx="0" cy="0" r="1" gradientUnits="userSpaceOnUse"
      gradientTransform="matrix(-48,-185,123,-32,179,429.7)">
      <stop offset="0" style="stop-color:rgb(255,255,255);stop-opacity:0.4" />
      <stop offset="1" style="stop-color:black;stop-opacity:0.1" />
    </radialGradient>
    <radialGradient id="_Radial2" cx="0" cy="0" r="1" gradientUnits="userSpaceOnUse"
      gradientTransform="matrix(41,-310,229,30,341.6,351.3)">
      <stop offset="0" style="stop-color:rgb(255,255,255);stop-opacity:0.6" />
      <stop offset="1" style="stop-color:rgb(255,255,255);stop-opacity:0.1" />
    </radialGradient>
    <radialGradient id="_Radial3" cx="0" cy="0" r="1" gradientUnits="userSpaceOnUse"
      gradientTransform="matrix(57,-261,178,39,190.5,296.3)">
      <stop offset="0" style="stop-color:rgb(255,255,255);stop-opacity:0.8" />
      <stop offset="1" style="stop-color:rgb(255,255,255);stop-opacity:0.4" />
    </radialGradient>
    <radialGradient id="_Radial4" cx="0" cy="0" r="1" gradientUnits="userSpaceOnUse"
      gradientTransform="matrix(-79,-133,153,-90,321.4,464.2)">
      <stop offset="0" style="stop-color:rgb(255,255,255);stop-opacity:0.3" />
      <stop offset="1" style="stop-color:black;stop-opacity:0.3" />
    </radialGradient>
    <radialGradient id="_Radial5" cx="0" cy="0" r="1" gradientUnits="userSpaceOnUse"
      gradientTransform="matrix(-29,136,-92,-20,300.7,149.9)">
      <stop offset="0" style="stop-color:rgb(255,255,255);stop-opacity:0" />
      <stop offset="1" style="stop-color:rgb(255,255,255);stop-opacity:0.2" />
    </radialGradient>
    <radialGradient id="_Radial6" cx="0" cy="0" r="1" gradientUnits="userSpaceOnUse"
      gradientTransform="matrix(72,73,-155,153,137.8,225.2)">
      <stop offset="0" style="stop-color:rgb(255,255,255);stop-opacity:0.2" />
      <stop offset="1" style="stop-color:rgb(255,255,255);stop-opacity:0.4" />
    </radialGradient>
    <radialGradient id="_Radial7" cx="0" cy="0" r="1" gradientUnits="userSpaceOnUse"
      gradientTransform="matrix(20,118,-251,43,215.1,273.7)">
      <stop offset="0" style="stop-color:rgb(255,255,255);stop-opacity:0.1" />
      <stop offset="1" style="stop-color:rgb(255,255,255);stop-opacity:0.3" />
    </radialGradient>
    <radialGradient id="_Radial8" cx="0" cy="0" r="1" gradientUnits="userSpaceOnUse"
      gradientTransform="matrix(-162,-85,268,-510,374.4,371.7)">
      <stop offset="0" style="stop-color:rgb(255,255,255);stop-opacity:0.2" />
      <stop offset="0.5" style="stop-color:rgb(255,255,255);stop-opacity:0.2" />
      <stop offset="1" style="stop-color:rgb(255,255,255);stop-opacity:0.3" />
    </radialGradient>
  </defs>
  <g transform="matrix(1.21309,0,0,1.21309,-54.5619,-54.8129)">
    <path
      d="M359.2,437.5C356.6,456.5 337.9,471.4 319.2,466.2C292.7,459 262,447.6 234.4,445.5L192,442.3C185.191,441.821 178.786,438.868 174,434L101,359.2C93.084,351.064 90.935,338.849 95.6,328.5C100.265,318.151 140.6,229.9 142.4,224.8C144,219.7 150.2,174.9 153.8,150.9C154.809,144.529 157.99,138.698 162.8,134.4L249,57.2C254.136,52.593 260.798,50.043 267.697,50.043C276.219,50.043 284.291,53.934 289.6,60.6L362.2,152.2C366.262,157.43 368.446,163.878 368.4,170.5C368.4,187.8 369.9,223.5 379.6,246.5C389.225,267.185 401.168,286.71 415.2,304.7C418.669,309.203 419.065,315.391 416.2,320.3C409.9,331 397.3,351.6 379.6,377.9C368.395,395.982 361.389,416.351 359.1,437.5L359.2,437.5Z"
      style="fill-opacity:0.3;" />
  </g>
  <g id="arrow" transform="matrix(1.21309,0,0,1.21309,-54.5619,-54.8129)">
    <path
      d="M359.9,434.3C357.3,453.4 338.6,468.3 319.9,463.2C293.5,455.9 262.9,444.5 235.2,442.4L192.9,439.2C186.075,438.703 179.665,435.712 174.9,430.8L101.9,355.8C93.906,347.582 91.756,335.237 96.5,324.8C101.244,314.363 141.6,225.8 143.3,220.6C145,215.5 151.1,170.6 154.7,146.4C155.687,139.993 158.869,134.123 163.7,129.8L249.9,52.3C255.03,47.719 261.673,45.184 268.55,45.184C277.099,45.184 285.193,49.099 290.5,55.8L363,147.8C367.048,153.037 369.231,159.481 369.2,166.1C369.2,183.5 370.7,219.3 380.3,242.4C389.918,263.183 401.861,282.808 415.9,300.9C419.444,305.403 419.882,311.647 417,316.6C410.6,327.4 398.1,348 380.3,374.5C369.136,392.667 362.166,413.098 359.9,434.3Z"
      style="fill:rgb(108,49,227);" />
  </g>
  <g transform="matrix(1.21309,0,0,1.21309,-54.5619,-54.8129)">
    <path
      d="M182.7,436.4C216.6,367.7 215.7,318.4 201.2,283.4C188,251 163.3,230.6 143.9,217.9C143.5,219.8 142.9,221.6 142.1,223.3L96.5,324.8C91.781,335.257 93.972,347.605 102,355.8L174.9,430.8C177.2,433.1 179.9,435 182.7,436.4Z"
      style="fill:url(#_Radial1);" />
  </g>
  <g transform="matrix(1.21309,0,0,1.21309,-54.5619,-54.8129)">
    <path
      d="M274.9,297C284,297.9 292.9,299.9 301.7,303.1C329.5,313.5 354.8,336.9 375.7,382C377.2,379.4 378.7,376.9 380.3,374.5C393.072,355.547 405.311,336.239 417,316.6C419.91,311.667 419.513,305.424 416,300.9C401.926,282.813 389.949,263.187 380.3,242.4C370.7,219.4 369.3,183.5 369.2,166.1C369.2,159.5 367.1,153 363,147.8L290.5,55.8L289.3,54.3C294.6,71.8 294.3,85.8 291,98.5C288,110.3 282.4,121 276.5,132.3C274.5,136.1 272.5,140 270.6,144C261.196,161.961 255.805,181.751 254.8,202C253.8,226.2 258.7,256.5 274.8,297L274.9,297Z"
      style="fill:url(#_Radial2);" />
  </g>
  <g transform="matrix(1.21309,0,0,1.21309,-54.5619,-54.8129)">
    <path
      d="M274.8,297C258.7,256.5 253.8,226.2 254.8,202C255.8,178 262.8,160 270.6,144L276.6,132.3C282.4,121 287.9,110.3 291,98.5C294.681,83.91 294.091,68.564 289.3,54.3C279.014,42.998 261.278,42.098 249.9,52.3L163.7,129.8C158.869,134.123 155.687,139.993 154.7,146.4L144.2,216C144.2,216.7 144,217.3 143.9,218C163.3,230.6 187.9,251 201.2,283.3C203.8,289.7 206,296.4 207.6,303.7C229.452,297.64 252.177,295.341 274.8,296.9L274.8,297Z"
      style="fill:url(#_Radial3);" />
  </g>
  <g transform="matrix(1.21309,0,0,1.21309,-54.5619,-54.8129)">
    <path
      d="M320,463.2C338.6,468.3 357.3,453.4 359.9,434.2C362.029,415.988 367.415,398.306 375.8,382C354.8,336.9 329.5,313.5 301.8,303.1C272.3,292.1 240.2,295.8 207.6,303.7C214.9,336.8 210.6,380.1 182.8,436.4C185.9,438 189.4,438.9 192.9,439.2L236.8,442.5C260.6,444.2 296.1,456.5 320,463.2Z"
      style="fill:url(#_Radial4);" />
  </g>
  <g transform="matrix(1.21309,0,0,1.21309,-54.5619,-54.8129)">
    <path
      d="M255,200.5C253.9,224.5 256.9,251.9 273,292.3L268,291.8C253.5,249.7 250.3,228.1 251.4,203.8C252.4,179.5 260.3,160.8 268.1,144.8C270.1,140.8 274.7,133.3 276.7,129.5C282.5,118.2 286.4,112.3 289.7,102C294.5,87.6 293.5,80.8 292.9,74C296.6,98.5 282.5,119.8 271.9,141.5C262.087,159.727 256.29,179.846 254.9,200.5L255,200.5Z"
      style="fill:url(#_Radial5);" />
  </g>
  <g transform="matrix(1.21309,0,0,1.21309,-54.5619,-54.8129)">
    <path
      d="M206,285.1C208,289.5 209.7,293.1 210.9,298.6L206.6,299.6C204.9,293.2 203.6,288.6 201.1,283.1C186.5,248.8 163.1,231.1 144.1,218.1C167.1,230.5 190.8,250 206,285.1Z"
      style="fill:url(#_Radial6);" />
  </g>
  <g transform="matrix(1.21309,0,0,1.21309,-54.5619,-54.8129)">
    <path d="M211.1,303C219.1,340.5 210.1,388.2 183.6,434.6C205.8,388.6 216.6,344.5 207.6,303.6L211.1,302.9L211.1,303Z"
      style="fill:url(#_Radial7);" />
  </g>
  <g transform="matrix(1.21309,0,0,1.21309,-54.5619,-54.8129)">
    <path
      d="M302.7,299.5C346.2,315.8 363,351.5 375.5,381.4C360,350.2 338.5,315.7 301.1,302.9C272.7,293.1 248.7,294.3 207.6,303.6L206.7,299.6C250.3,289.6 273.1,288.4 302.7,299.6L302.7,299.5Z"
      style="fill:url(#_Radial8);" />
  </g>
</svg>