<?xml version="1.0" encoding="utf-8"?>
<svg xmlns="http://www.w3.org/2000/svg" viewBox="0 0 512 512">
  <g transform="matrix(0.5,0,0,0.5,0,0)">
    <path
      d="M1024,864C1024,952.4 952.4,1024 864,1024L160,1024C71.6,1024 0,952.4 0,864L0,160C0,71.6 71.6,0 160,0L864,0C952.4,0 1024,71.6 1024,160L1024,864Z"
      style="fill:rgb(23,93,220);" />
  </g>
  <g transform="matrix(0.5,0,0,0.5,0,0)">
    <path
      d="M829.8,128.6C823.3,122.1 815.6,118.9 806.8,118.9L217.2,118.9C208.3,118.9 200.7,122.1 194.2,128.6C187.7,135.1 184.5,142.8 184.5,151.6L184.5,544.7C184.5,574 190.2,603.1 201.6,632C213,660.8 227.2,686.4 244.1,708.8C261,731.1 281.1,752.9 304.5,774.1C327.9,795.3 349.5,812.8 369.2,826.8C389,840.8 409.6,854 431.1,866.5C452.6,879 467.9,887.4 476.9,891.8C485.9,896.2 493.2,899.7 498.6,902C502.7,904 507.1,905.1 511.9,905.1C516.7,905.1 521.1,904.1 525.2,902C530.7,899.6 537.9,896.2 547,891.8C556,887.4 571.3,878.9 592.8,866.5C614.3,854 634.9,840.8 654.7,826.8C674.5,812.8 696.1,795.2 719.5,774.1C742.9,752.9 763,731.2 779.9,708.8C796.8,686.4 810.9,660.9 822.4,632C833.8,603.2 839.5,574.1 839.5,544.7L839.5,151.7C839.6,142.8 836.3,135.1 829.8,128.6ZM753.8,548.4C753.8,690.7 512,813.3 512,813.3L512,203.1L753.8,203.1L753.8,548.4Z"
      style="fill:white;" />
  </g>
</svg>