<?xml version="1.0" encoding="utf-8"?>
<svg xmlns="http://www.w3.org/2000/svg" viewBox="0 0 512 512">
  <g transform="matrix(1.73925,0,0,1.73925,30.7672,-1.4896)">
    <path id="path3156"
      d="M39.804,116.54C39.804,116.54 60.959,98.148 123.573,98.148C181.015,98.148 197.157,111.161 213.552,116.54L128.017,158.28L39.804,116.54Z"
      style="fill:rgb(201,120,31);" />
    <g id="g3158" transform="matrix(1,0,0,1,28.7096,26.0108)">
      <path id="path3160"
        d="M2.163,145.886C2.551,153.864 10.532,150.173 14.147,147.679C17.578,145.311 18.582,147.279 18.883,142.606C19.08,139.534 19.435,136.463 19.26,133.379C14.071,132.909 8.427,134.143 4.173,137.229C1.982,138.82 -2.126,143.894 2.163,145.886"
        style="fill:rgb(246,210,162);" />
      <path id="path3162" d="M2.163,145.886C3.325,145.455 4.556,145.148 5.344,144.099" style="fill:rgb(198,177,152);" />
      <path id="path3164" d="M20.607,50.842C-9.976,42.253 12.765,3.398 37.324,19.38L20.607,50.842Z"
        style="fill:rgb(55,171,200);" />
      <path id="path3166" d="M156.488,16.464C180.695,-0.516 202.571,37.794 174.437,47.433L156.488,16.464Z"
        style="fill:rgb(55,171,200);" />
      <path id="path3168"
        d="M161.695,244.076C167.844,247.876 179.083,259.364 169.859,264.935C160.996,273.039 156.036,256.04 148.257,253.684C151.607,249.141 155.853,244.998 161.695,244.076Z"
        style="fill:rgb(246,210,162);" />
      <path id="path3170" d="M169.859,264.935C168.492,262.219 168.032,259.05 165.749,256.861" style="fill:none;" />
      <path id="path3172"
        d="M51.842,257.06C44.625,258.175 40.563,264.678 34.546,267.98C28.877,271.356 26.708,266.899 26.197,265.994C25.308,265.589 25.383,266.371 24.011,264.991C18.755,256.708 29.488,250.653 35.076,246.538C42.86,244.966 47.738,251.705 51.842,257.06Z"
        style="fill:rgb(246,210,162);" />
      <path id="path3174" d="M26.198,265.993C26.472,262.837 28.979,260.722 30.173,258.052" style="fill:none;" />
      <path id="path3176"
        d="M21.884,40.11C17.849,37.979 14.889,35.084 17.357,30.423C19.642,26.109 23.887,26.577 27.922,28.708L21.884,40.11Z"
        style="fill:rgb(7,126,145);" />
      <path id="path3178"
        d="M168.063,36.058C172.098,33.927 175.058,31.032 172.59,26.371C170.305,22.056 166.06,22.525 162.024,24.656L168.063,36.058Z"
        style="fill:rgb(7,126,145);" />
      <path id="path3180"
        d="M195.837,144.873C195.45,152.851 187.469,149.16 183.854,146.665C180.422,144.297 179.419,146.266 179.118,141.593C178.921,138.521 178.566,135.45 178.741,132.366C183.929,131.896 189.574,133.13 193.827,136.216C196.018,137.806 200.127,142.882 195.837,144.873"
        style="fill:rgb(246,210,162);" />
      <path id="path3182" d="M195.837,144.873C194.676,144.441 193.445,144.135 192.656,143.086"
        style="fill:rgb(198,177,152);" />
      <g id="g3184" transform="matrix(1,0,0,1,15.3508,0)">
        <path id="path3186"
          d="M80.585,0.326C111.203,0.326 139.905,4.699 154.867,34.075C168.297,67.002 163.521,102.509 165.569,137.308C167.328,167.189 171.228,201.71 157.347,229.401C142.745,258.533 106.256,265.861 76.193,264.788C52.58,263.944 24.055,256.251 10.729,234.706C-4.907,209.43 2.496,171.847 3.631,143.723C4.976,110.408 -5.405,76.992 5.554,44.392C16.923,10.576 47.585,2.933 80.585,0.326"
          style="fill:rgb(55,171,200);" />
      </g>
      <path id="path3188"
        d="M101.341,41.373C106.838,73.286 159.073,64.848 151.57,32.662C144.843,3.8 99.514,11.789 101.341,41.373"
        style="fill:rgb(255,255,255);" />
      <path id="path3190"
        d="M38.921,46.534C46.046,74.317 90.587,67.204 88.908,39.335C86.897,5.957 32.109,12.398 38.921,46.534"
        style="fill:rgb(255,255,255);" />
      <path id="path3192"
        d="M111.481,78.573C111.505,82.838 112.491,87.006 111.639,91.794C110.579,93.795 108.499,94.007 106.705,94.816C104.225,94.427 102.139,92.801 101.144,90.484C100.507,85.446 101.381,80.568 101.542,75.528L111.481,78.573Z"
        style="fill:rgb(255,255,255);" />
      <g id="g3194" transform="matrix(1,0,0,1,43.3111,33.3976)">
        <ellipse id="ellipse3196" cx="7.895" cy="8.606" rx="7.521" ry="8.136" />
        <ellipse id="ellipse3198" cx="11.316" cy="10.441" rx="1.773" ry="2.068" style="fill:rgb(255,255,255);" />
      </g>
      <g id="g3200" transform="matrix(1,0,0,1,106.359,31.7551)">
        <ellipse id="ellipse3202" cx="7.866" cy="8.222" rx="7.396" ry="8.136" />
        <ellipse id="ellipse3204" cx="11.231" cy="10.058" rx="1.744" ry="2.068" style="fill:rgb(255,255,255);" />
      </g>
      <path id="path3206"
        d="M89.987,79.215C86.705,87.158 91.817,103.04 100.721,91.326C100.084,86.287 100.958,81.41 101.119,76.37L89.987,79.215Z"
        style="fill:rgb(255,255,255);" />
      <g id="g3208" transform="matrix(1,0,0,1,80.0432,62.9627)">
        <path id="path3210"
          d="M9.422,0.957C3.305,1.478 -1.695,8.74 1.486,14.486C5.697,22.096 15.097,13.812 20.952,14.589C27.691,14.727 33.211,21.704 38.624,15.85C44.643,9.339 36.032,2.998 29.302,0.163L9.422,0.957Z"
          style="fill:rgb(246,210,162);" />
      </g>
    </g>
    <g id="g3212" transform="matrix(1,0,0,1,36.9332,116.349)">
      <path id="path3214"
        d="M2.871,0.191C2.871,0.191 4.807,21.139 4.674,30.169C4.542,39.198 13.205,33.497 13.654,47.698C14.104,61.898 8.407,59.205 5.405,66.156C2.403,73.106 0.363,105.655 0.363,105.655C0.363,105.655 3.444,111.737 13.064,117.213C22.685,122.689 38.154,125.765 51.549,125.159C64.945,124.553 74.513,121.687 76.905,120.102C79.297,118.518 83.267,113.505 84.761,109.628C86.254,105.751 89.374,73.82 89.157,55.548C88.939,37.277 85.916,20.417 85.916,20.417L2.871,0.191Z"
        style="fill:rgb(239,147,37);" />
      <path id="path3216"
        d="M87.722,89.156C48.275,93.553 2.504,81.397 2.504,81.397C2.504,81.397 3.177,69.066 6.137,64.727C47.164,77.421 88.554,73.396 88.554,73.396C89.168,79.152 88.735,83.728 87.722,89.156Z"
        style="fill:rgb(229,229,229);" />
      <path id="path3218"
        d="M82.757,113.458C43.31,117.855 0.363,105.21 0.363,105.21C0.363,105.21 0.226,93.367 1.793,88.166C42.819,100.86 86.64,97.697 86.64,97.697C86.271,103.945 85.391,110.096 82.757,113.458Z"
        style="fill:rgb(229,229,229);" />
    </g>
    <g id="g3220" transform="matrix(1,0,0,1,131.231,116.349)">
      <path id="path3222"
        d="M82.322,0.191C82.322,0.191 82.054,21.139 82.188,30.169C82.323,39.198 76.937,33.497 76.482,47.698C76.026,61.898 81.795,59.205 84.835,66.156C87.874,73.106 89.94,105.655 89.94,105.655C89.94,105.655 86.821,111.737 77.08,117.213C67.339,122.689 51.674,125.765 38.111,125.159C24.548,124.553 14.86,121.687 12.437,120.102C10.014,118.517 5.994,113.505 4.482,109.628C2.97,105.751 -0.189,73.82 0.031,55.548C0.252,37.277 3.312,20.417 3.312,20.417L82.322,0.191Z"
        style="fill:rgb(239,147,37);" />
      <path id="path3224"
        d="M1.484,89.156C41.426,93.553 87.772,81.397 87.772,81.397C87.772,81.397 87.091,69.066 84.094,64.727C42.552,77.421 0.642,73.396 0.642,73.396C0.02,79.152 0.458,83.728 1.484,89.156Z"
        style="fill:rgb(229,229,229);" />
      <path id="path3226"
        d="M6.511,113.458C46.454,117.855 89.94,105.21 89.94,105.21C89.94,105.21 90.079,93.367 88.492,88.166C46.95,100.86 2.579,97.697 2.579,97.697C2.953,103.945 3.844,110.096 6.511,113.458Z"
        style="fill:rgb(229,229,229);" />
    </g>
    <g id="g3228" transform="matrix(1,0,0,1,207.984,94.9961)">
      <path id="path3230"
        d="M21.503,59.965C20.261,62.304 17.805,63.433 16.015,62.486L14.582,61.728C12.792,60.781 12.347,58.117 13.588,55.778L41.54,3.09C42.781,0.751 45.238,-0.378 47.028,0.569L48.461,1.327C50.251,2.274 50.696,4.938 49.455,7.277L21.503,59.965Z"
        style="fill:rgb(210,226,97);" />
      <path id="path3232"
        d="M8.302,84.847C7.579,86.21 5.542,86.547 3.753,85.6L2.319,84.842C0.53,83.895 -0.336,82.023 0.388,80.66L13.502,55.941C14.225,54.578 16.261,54.241 18.051,55.188L19.484,55.946C21.274,56.893 22.139,58.766 21.416,60.128L8.302,84.847Z" />
      <path id="path3234"
        d="M19.962,55.046L18.528,54.288C16.739,53.341 14.908,53.289 14.439,54.173L13.601,55.753C14.07,54.869 15.9,54.92 17.69,55.868L19.124,56.626C20.913,57.573 21.984,59.057 21.516,59.94L22.354,58.36C22.823,57.477 21.751,55.993 19.962,55.046Z"
        style="fill:rgb(155,155,155);" />
    </g>
    <g id="ellipse3236" transform="matrix(0.937198,0.348799,-0.348799,0.937198,70.8943,-65.0677)">
      <ellipse cx="216.137" cy="164.336" rx="6.153" ry="4.754" style="fill:rgb(246,210,162);" />
    </g>
    <g id="g3238" transform="matrix(1,0,0,1,0.749249,94.9961)">
      <path id="path3240"
        d="M26.194,60.815C27.327,63.209 29.729,64.449 31.56,63.585L33.027,62.893C34.858,62.029 35.425,59.389 34.292,56.995L8.789,3.082C7.657,0.688 5.255,-0.552 3.424,0.312L1.957,1.004C0.126,1.868 -0.441,4.509 0.691,6.902L26.194,60.815Z"
        style="fill:rgb(210,226,97);" />
      <path id="path3242"
        d="M38.239,86.276C38.898,87.671 40.917,88.101 42.749,87.237L44.216,86.545C46.047,85.681 46.997,83.85 46.337,82.456L34.371,57.162C33.712,55.767 31.693,55.338 29.861,56.201L28.395,56.893C26.563,57.757 25.613,59.588 26.273,60.982L38.239,86.276Z" />
      <path id="path3244"
        d="M27.959,55.972L29.426,55.28C31.257,54.416 33.088,54.449 33.516,55.352L34.28,56.97C33.853,56.066 32.022,56.034 30.191,56.897L28.724,57.589C26.893,58.453 25.755,59.886 26.182,60.79L25.418,59.173C24.99,58.27 26.128,56.836 27.959,55.972Z"
        style="fill:rgb(155,155,155);" />
    </g>
    <g id="ellipse3246" transform="matrix(-0.937198,0.348799,-0.348799,-0.937198,137.158,305.353)">
      <ellipse cx="41.089" cy="165.024" rx="6.153" ry="4.754" style="fill:rgb(246,210,162);" />
    </g>
    <g id="g3248" transform="matrix(1,0,0,1,26.5166,0.825753)">
      <g id="g3250" transform="matrix(1,0,0,1,2.19297,25.7326)">
        <path id="path3252"
          d="M24.195,62.268C22.979,64.477 20.111,65.233 17.788,63.957L15.116,62.49C12.793,61.215 11.896,58.391 13.112,56.182L40.915,5.686C42.131,3.478 45,2.722 47.323,3.998L49.994,5.465C52.317,6.74 52.916,9.127 51.998,11.772C42.259,39.836 24.195,62.268 24.195,62.268Z"
          style="fill:rgb(150,0,0);" />
        <path id="path3254"
          d="M31.55,33.426C40.005,18.07 45.56,4.863 44.236,3.365L44.268,3.309C44.232,3.289 44.193,3.276 44.157,3.256C44.153,3.253 44.152,3.244 44.147,3.242L44.143,3.249C31.15,-3.781 13.67,3.182 5.034,18.865C-3.601,34.549 -0.124,53.019 12.78,60.209L12.776,60.217C12.781,60.22 12.789,60.216 12.794,60.218C12.83,60.238 12.861,60.264 12.897,60.283L12.929,60.227C14.903,60.541 23.095,48.781 31.55,33.426Z"
          style="fill:rgb(89,89,89);" />
      </g>
      <g id="g3256" transform="matrix(1,0,0,1,146.38,25.7326)">
        <path id="path3258"
          d="M26.696,62.374C27.847,64.616 30.693,65.455 33.051,64.247L35.764,62.857C38.123,61.649 39.101,58.852 37.95,56.61L11.617,5.334C10.466,3.092 7.62,2.253 5.261,3.461L2.549,4.851C0.19,6.059 -0.478,8.428 0.363,11.098C9.288,39.431 26.696,62.374 26.696,62.374Z"
          style="fill:rgb(150,0,0);" />
        <path id="path3260"
          d="M20.177,33.331C12.17,17.739 6.998,4.377 8.365,2.918L8.335,2.86C8.372,2.842 8.411,2.829 8.447,2.811C8.452,2.808 8.453,2.799 8.458,2.797L8.462,2.805C21.652,-3.848 38.924,3.615 47.103,19.541C55.281,35.468 51.273,53.83 38.166,60.645L38.17,60.653C38.165,60.655 38.157,60.651 38.152,60.653C38.115,60.673 38.084,60.697 38.047,60.716L38.017,60.658C36.034,60.915 28.185,48.924 20.177,33.331Z"
          style="fill:rgb(89,89,89);" />
      </g>
      <path id="path3262"
        d="M192.63,52.488C192.63,52.488 182.901,28.154 171.618,15.288C160.335,2.423 49.943,-1.964 31.815,15.288C13.687,32.541 6.852,52.488 6.852,52.488L6.852,47.099C6.852,47.099 15.237,23.41 31.815,9.899C48.393,-3.612 157.333,-2.901 171.387,9.899C185.442,22.698 192.63,47.099 192.63,47.099L192.63,52.488Z"
        style="fill:rgb(53,53,53);" />
      <g id="ellipse3264" transform="matrix(-0.889821,0.456311,-0.456311,-0.889821,384.806,-0.722695)">
        <ellipse cx="192.49" cy="46.096" rx="3.81" ry="9.294" style="fill:rgb(150,0,0);" />
      </g>
      <g id="ellipse3266" transform="matrix(0.876286,0.481792,-0.481792,0.876286,22.9185,1.669)">
        <ellipse cx="8.209" cy="45.461" rx="3.81" ry="9.294" style="fill:rgb(150,0,0);" />
      </g>
    </g>
    <g id="g3268" transform="matrix(1,0,0,1,59.9593,47.9109)">
      <path id="path3270"
        d="M117.592,0.269L14.627,0.269C-3.86,0.269 -3.796,49.329 13.561,52.157L49.452,49.852C53.791,49.852 62.456,33.068 64.081,31.749C65.707,30.429 71.06,30.268 73.168,31.749C75.277,33.229 80.072,48.16 84.411,48.16L120.302,52.156C137.067,44.452 132.841,0.269 117.592,0.269Z"
        style="fill:rgb(255,255,255);fill-opacity:0.6;" />
      <path id="path3272"
        d="M41.965,10.413C30.625,10.16 12.881,10.263 3.189,10.342C1.564,15.663 -0.248,22.4 0.65,28.942C9.453,28.942 28.589,28.984 42.197,28.984C50.391,28.984 57.28,30.528 63.687,32.201C63.845,31.999 63.978,31.851 64.081,31.767C65.707,30.448 71.06,30.287 73.168,31.767C73.714,32.15 74.442,33.441 75.292,35.134C78.564,35.823 81.84,36.298 85.244,36.341C94.518,36.458 116.251,36.421 130.236,36.382C132.018,30.437 130.704,24.065 130.305,18.077C116.65,18.077 94.95,17.77 84.547,17.77C69.888,17.769 57.089,10.75 41.965,10.413Z"
        style="fill:rgb(255,255,255);fill-opacity:0.5;" />
    </g>
    <path id="path3274"
      d="M117.405,89.612C116.952,79.03 137.154,77.708 139.54,86.565C141.92,95.402 118.399,97.455 117.405,89.612C116.611,83.351 117.405,89.612 117.405,89.612Z" />
  </g>
</svg>