<?xml version="1.0" encoding="utf-8"?>
<svg xmlns="http://www.w3.org/2000/svg" viewBox="0 0 512 512">
  <defs>
    <linearGradient id="_Linear1" x1="0" y1="0" x2="1" y2="0" gradientUnits="userSpaceOnUse"
      gradientTransform="matrix(7.18451e-15,-117.332,117.332,7.18451e-15,58.666,117.332)">
      <stop offset="0" style="stop-color:rgb(8,130,200);stop-opacity:1" />
      <stop offset="1" style="stop-color:rgb(38,182,219);stop-opacity:1" />
    </linearGradient>
  </defs>
  <g transform="matrix(4.36116,0,0,4.36116,0,0)">
    <circle cx="58.7" cy="58.7" r="58.7" style="fill:url(#_Linear1);" />
    <g>
      <circle cx="58.7" cy="58.5" r="43.7" style="fill:none;stroke:rgb(255,255,255);stroke-width:6px;" />
      <g>
        <path
          d="M94.7,47.8C99.4,49.4 104.5,46.9 106.1,42.2C107.7,37.5 105.2,32.4 100.5,30.8C95.8,29.2 90.7,31.7 89.1,36.4C87.5,41.1 90,46.2 94.7,47.8Z"
          style="fill:rgb(255,255,255);" />
        <path d="M97.6,39.4L67.5,64.4" style="fill:none;stroke:rgb(255,255,255);stroke-width:6px;" />
      </g>
      <g>
        <path
          d="M77.6,91C77.2,95.9 80.8,100.3 85.8,100.8C90.8,101.2 95.1,97.6 95.6,92.6C96,87.7 92.4,83.3 87.4,82.8C82.4,82.4 78,86 77.6,91Z"
          style="fill:rgb(255,255,255);" />
        <path d="M86.5,91.8L67.5,64.4" style="fill:none;stroke:rgb(255,255,255);stroke-width:6px;" />
      </g>
      <path
        d="M60,69.3C62.7,73.5 68.3,74.7 72.4,72C76.6,69.3 77.8,63.7 75.1,59.6C72.4,55.4 66.8,54.2 62.7,56.9C58.5,59.5 57.3,65.1 60,69.3Z"
        style="fill:rgb(255,255,255);" />
      <g>
        <path
          d="M21.2,61.4C16.9,58.9 11.4,60.3 8.9,64.5C6.4,68.8 7.8,74.3 12,76.8C16.3,79.3 21.8,77.9 24.3,73.7C26.8,69.5 25.4,64 21.2,61.4Z"
          style="fill:rgb(255,255,255);" />
        <path d="M16.6,69.1L67.5,64.4" style="fill:none;stroke:rgb(255,255,255);stroke-width:6px;" />
      </g>
    </g>
  </g>
</svg>