<?xml version="1.0" encoding="utf-8"?>
<svg xmlns="http://www.w3.org/2000/svg" viewBox="0 0 512 512">
  <g transform="matrix(1.16625,0,0,1.16625,0.0175793,75.9898)">
    <path
      d="M379.6,111.7C377.3,95 368.1,80.5 351.5,67.4L341.9,60.9L335.5,70.6C327.3,83.1 323.2,100.5 324.5,117.2C325.1,123 327,133.6 332.9,142.7C327,146 315.3,150.4 299.7,150.1L1.7,150.1L1.1,153.6C-1.7,170.3 -1.7,222.6 31.8,262.7C57.3,293.2 95.4,308.7 145.2,308.7C253.2,308.7 333,258.4 370.5,166.8C385.2,167.1 416.9,166.9 433.2,135.4C433.6,134.7 434.6,132.8 437.4,126.8L439,123.5L429.9,117.3C419.9,110.8 397.2,108.3 379.6,111.7ZM240,0L194.7,0L194.7,41.7L240,41.7L240,0ZM240,50.1L194.7,50.1L194.7,91.8L240,91.8L240,50.1ZM186.4,50.1L141.1,50.1L141.1,91.8L186.4,91.8L186.4,50.1ZM132.9,50.1L87.6,50.1L87.6,91.8L132.9,91.8L132.9,50.1ZM79.3,100.2L34,100.2L34,141.9L79.3,141.9L79.3,100.2ZM132.9,100.2L87.6,100.2L87.6,141.9L132.9,141.9L132.9,100.2ZM186.4,100.2L141.1,100.2L141.1,141.9L186.4,141.9L186.4,100.2ZM240,100.2L194.7,100.2L194.7,141.9L240,141.9L240,100.2ZM293.6,100.2L248.3,100.2L248.3,141.9L293.6,141.9L293.6,100.2Z"
      style="fill:rgb(29,99,237);" />
  </g>
</svg>