<?xml version="1.0" encoding="utf-8"?>
<svg xmlns="http://www.w3.org/2000/svg" viewBox="0 0 512 512">
  <g transform="matrix(2.89266,0,0,2.89266,-0.289266,54.7552)">
    <path
      d="M75.5,1.2L46.7,26.8L27.7,44.2L19.2,51.8L16.7,53.5L17.4,83.3L47.5,111.7L68.8,130.7L75.8,136.8L78.9,136.6L110.5,109.4L132.3,88.9L137.4,84.4L138.9,73.1L142.5,54.3L123.2,39.1L84,4.5L79.9,1.5L77.6,0.6L75.5,1.2"
      style="fill:rgb(255,229,0);" />
  </g>
  <g transform="matrix(2.89266,0,0,2.89266,-0.289266,54.7552)">
    <clipPath id="_clip1">
      <path
        d="M77.6,2.2L77.7,2.2L77.6,2.2M145.4,64.6C141.4,60.1 132.9,51 113.4,33C83.9,5.5 78.5,2.6 77.7,2.2C76.9,2.5 71.5,5.4 42.4,32.9C27.6,46.9 17.1,57.2 11,63.6C8.4,66.4 6.6,68.5 6.4,68.8C6.9,69.8 11.1,75.7 42.8,105.1C56.4,117.7 66.4,126.6 72.5,131.6C73.4,132.3 77.5,135.5 77.5,135.5L77.7,135.5C78.1,135.4 82.8,133.7 113.6,104.7C132.6,86.8 141.1,77.8 145.2,73.2L145.4,64.6M6.2,69.3C6.3,69.1 6.3,68.9 6.3,68.8L6.2,69.3" />
    </clipPath>
    <g clip-path="url(#_clip1)">
      <path
        d="M65.5,122.7L61.9,118.3L58.2,114.1L55.7,111.5C42.3,98.2 15.1,70.9 14.8,70.6L14.7,70.4C14.7,70.3 14.8,70.2 14.8,70.2C16,69.1 42.5,43.5 57,31.2L79.3,13.2L78.6,-0.6L44.7,29.7C32.3,40.6 8.6,66.6 8.4,66.8C7.8,67.3 7.5,68.1 7.5,68.9C7.5,69.7 7.8,70.5 8.5,71.1L8.6,71.2C12.7,75.1 33.6,95 44.2,105.2C47.8,108.7 49.1,109.7 50.4,110.8L56.2,115.5L65.5,122.7Z"
        style="fill:rgb(255,229,0);" />
    </g>
  </g>
  <g transform="matrix(2.89266,0,0,2.89266,-0.289266,54.7552)">
    <clipPath id="_clip2">
      <path
        d="M77.6,2.2L77.7,2.2L77.6,2.2M145.4,64.6C141.4,60.1 132.9,51 113.4,33C83.9,5.5 78.5,2.6 77.7,2.2C76.9,2.5 71.5,5.4 42.4,32.9C27.6,46.9 17.1,57.2 11,63.6C8.4,66.4 6.6,68.5 6.4,68.8C6.9,69.8 11.1,75.7 42.8,105.1C56.4,117.7 66.4,126.6 72.5,131.6C73.4,132.3 77.5,135.5 77.5,135.5L77.7,135.5C78.1,135.4 82.8,133.7 113.6,104.7C132.6,86.8 141.1,77.8 145.2,73.2L145.4,64.6M6.2,69.3C6.3,69.1 6.3,68.9 6.3,68.8L6.2,69.3" />
    </clipPath>
    <g clip-path="url(#_clip2)">
      <path
        d="M61.8,118.4C61.8,118.4 61.3,117.9 58.1,114.2L55.6,111.6L14.7,70.7L14.6,70.4L14.7,70.1C17.5,67.4 42.9,43 56.9,31.1C56.9,31.1 78.7,13.5 79.1,13.1C79.1,13 78.5,0.1 78.5,-0.4C78.2,0 44.8,29.8 44.8,29.8C32.3,40.7 8.7,66.7 8.4,66.9C7.8,67.4 7.5,68.2 7.5,69C7.5,69.8 7.8,70.5 8.4,71.1L8.5,71.2C12.6,75.1 33.5,95 44.1,105.2C47.6,108.6 49,109.7 50.2,110.7L56.1,115.5C56.1,115.5 62.5,120.4 64.7,122C64,121.1 61.8,118.4 61.8,118.4ZM61.7,118.5C61.7,118.5 61.4,118.1 58,114.3L55.5,111.7L14.6,70.8L14.4,70.5L14.5,70.1C17.4,67.3 42.6,43.1 56.7,31.1C56.7,31.1 78.5,13.5 78.9,13.1C78.9,13 78.3,0.4 78.3,-0.1C77.9,0.2 44.7,29.8 44.7,29.8C32.4,40.8 8.7,66.7 8.5,67C7.9,67.5 7.6,68.2 7.6,69C7.6,69.8 7.9,70.5 8.5,71L8.6,71.1C16.1,78.2 34.4,95.7 44.2,105.1C47.7,108.5 49.1,109.6 50.3,110.6L56.2,115.4C56.2,115.4 63,120.6 64.1,121.4C63.4,120.5 61.7,118.5 61.7,118.5Z"
        style="fill:rgb(255,230,0);" />
    </g>
  </g>
  <g transform="matrix(2.89266,0,0,2.89266,-0.289266,54.7552)">
    <clipPath id="_clip3">
      <path
        d="M77.6,2.2L77.7,2.2L77.6,2.2M145.4,64.6C141.4,60.1 132.9,51 113.4,33C83.9,5.5 78.5,2.6 77.7,2.2C76.9,2.5 71.5,5.4 42.4,32.9C27.6,46.9 17.1,57.2 11,63.6C8.4,66.4 6.6,68.5 6.4,68.8C6.9,69.8 11.1,75.7 42.8,105.1C56.4,117.7 66.4,126.6 72.5,131.6C73.4,132.3 77.5,135.5 77.5,135.5L77.7,135.5C78.1,135.4 82.8,133.7 113.6,104.7C132.6,86.8 141.1,77.8 145.2,73.2L145.4,64.6M6.2,69.3C6.3,69.1 6.3,68.9 6.3,68.8L6.2,69.3" />
    </clipPath>
    <g clip-path="url(#_clip3)">
      <path
        d="M61.6,118.5C61.6,118.5 61.3,118.2 57.9,114.3L55.4,111.7L20.3,76.5L14.6,70.8L14.4,70.5L14.5,70C14.8,69.7 41.8,43.7 56.8,30.9C56.8,30.9 78.6,13.3 79,13C79,12.9 78.4,0.6 78.4,0.1C78,0.5 44.9,29.9 44.9,29.9C32.8,40.6 9.5,66.1 8.6,67C8.1,67.5 7.7,68.2 7.7,68.9C7.7,69.6 8,70.3 8.6,70.9L8.7,71C16.1,78.1 34.5,95.6 44.3,105C47.8,108.4 49.1,109.5 50.4,110.5L56.3,115.3C56.3,115.3 62.3,119.8 63.4,120.7C62.8,119.9 61.6,118.5 61.6,118.5ZM61.5,118.6L61.6,118.7C61.5,118.6 61.3,118.4 58,114.7L57.8,114.5L55.3,111.9L20.2,76.6L14.5,70.9L14.3,70.5L14.4,70C14.6,69.7 41.8,43.5 56.7,30.9C56.7,30.9 78.4,13.4 78.8,13C78.8,12.9 78.2,0.8 78.2,0.4C77.9,0.7 45,30 45,30C32.7,40.8 9.6,66.1 8.7,67.1C8.2,67.6 7.9,68.3 7.9,69C7.9,69.7 8.2,70.4 8.7,70.9L8.8,71C16.2,78.1 34.6,95.6 44.4,105C47.9,108.4 49.2,109.5 50.5,110.5L56.4,115.3C56.4,115.3 61,118.8 62.8,120.1C62.2,119.5 61.5,118.6 61.5,118.6Z"
        style="fill:rgb(255,231,0);" />
    </g>
  </g>
  <g transform="matrix(2.89266,0,0,2.89266,-0.289266,54.7552)">
    <clipPath id="_clip4">
      <path
        d="M77.6,2.2L77.7,2.2L77.6,2.2M145.4,64.6C141.4,60.1 132.9,51 113.4,33C83.9,5.5 78.5,2.6 77.7,2.2C76.9,2.5 71.5,5.4 42.4,32.9C27.6,46.9 17.1,57.2 11,63.6C8.4,66.4 6.6,68.5 6.4,68.8C6.9,69.8 11.1,75.7 42.8,105.1C56.4,117.7 66.4,126.6 72.5,131.6C73.4,132.3 77.5,135.5 77.5,135.5L77.7,135.5C78.1,135.4 82.8,133.7 113.6,104.7C132.6,86.8 141.1,77.8 145.2,73.2L145.4,64.6M6.2,69.3C6.3,69.1 6.3,68.9 6.3,68.8L6.2,69.3" />
    </clipPath>
    <g clip-path="url(#_clip4)">
      <path
        d="M61.5,118.7C61.2,118.4 60.6,117.6 58,114.7L57.8,114.5L55.3,111.9L14.4,71L14.2,70.6C14.2,70.5 14.3,70 14.3,70C14.5,69.8 41.6,43.6 56.6,30.9C56.6,30.9 78.3,13.4 78.7,13C78.7,12.9 78.1,1.1 78.1,0.7C77.7,1 45.1,30.2 45.1,30.2C32.8,40.8 9.7,66.2 8.7,67.2C8.2,67.6 8,68.3 8,68.9C8,69.6 8.3,70.2 8.8,70.7L8.9,70.8C16.3,77.8 34.6,95.3 44.5,104.8C48,108.2 49.3,109.3 50.6,110.3L56.5,115.1C56.5,115.1 61.2,118.7 62.1,119.4C61.8,119.1 61.5,118.7 61.5,118.7Z"
        style="fill:rgb(255,231,10);" />
    </g>
  </g>
  <g transform="matrix(2.89266,0,0,2.89266,-0.289266,54.7552)">
    <clipPath id="_clip5">
      <path
        d="M77.6,2.2L77.7,2.2L77.6,2.2M145.4,64.6C141.4,60.1 132.9,51 113.4,33C83.9,5.5 78.5,2.6 77.7,2.2C76.9,2.5 71.5,5.4 42.4,32.9C27.6,46.9 17.1,57.2 11,63.6C8.4,66.4 6.6,68.5 6.4,68.8C6.9,69.8 11.1,75.7 42.8,105.1C56.4,117.7 66.4,126.6 72.5,131.6C73.4,132.3 77.5,135.5 77.5,135.5L77.7,135.5C78.1,135.4 82.8,133.7 113.6,104.7C132.6,86.8 141.1,77.8 145.2,73.2L145.4,64.6M6.2,69.3C6.3,69.1 6.3,68.9 6.3,68.8L6.2,69.3" />
    </clipPath>
    <g clip-path="url(#_clip5)">
      <path
        d="M61.4,118.7L57.7,114.5L55.2,111.9L20,76.8L14.3,71L14.1,70.6C14.1,70.5 14.2,69.9 14.2,69.9C14.3,69.7 41.2,43.7 56.6,30.7C56.6,30.7 78.3,13.2 78.7,12.9C78.7,12.8 78.1,1.3 78.1,0.9C77.7,1.2 45.2,30.2 45.2,30.2C33.2,40.6 11.2,64.9 8.8,67.2C8.3,67.6 8,68.3 8,68.9C8,69.5 8.3,70.2 8.8,70.6L9,70.8C16.4,77.8 34.6,95.2 44.6,104.8C48.1,108.2 49.4,109.3 50.7,110.3L56.6,115.1C56.5,115.1 60.5,118.1 61.4,118.7Z"
        style="fill:rgb(255,232,29);" />
    </g>
  </g>
  <g transform="matrix(2.89266,0,0,2.89266,-0.289266,54.7552)">
    <clipPath id="_clip6">
      <path
        d="M77.6,2.2L77.7,2.2L77.6,2.2M145.4,64.6C141.4,60.1 132.9,51 113.4,33C83.9,5.5 78.5,2.6 77.7,2.2C76.9,2.5 71.5,5.4 42.4,32.9C27.6,46.9 17.1,57.2 11,63.6C8.4,66.4 6.6,68.5 6.4,68.8C6.9,69.8 11.1,75.7 42.8,105.1C56.4,117.7 66.4,126.6 72.5,131.6C73.4,132.3 77.5,135.5 77.5,135.5L77.7,135.5C78.1,135.4 82.8,133.7 113.6,104.7C132.6,86.8 141.1,77.8 145.2,73.2L145.4,64.6M6.2,69.3C6.3,69.1 6.3,68.9 6.3,68.8L6.2,69.3" />
    </clipPath>
    <g clip-path="url(#_clip6)">
      <path
        d="M57.6,114.6L55.1,112L20,76.8L14.3,71.1L14,70.7C14,70.6 14.1,69.9 14.1,69.9C14.2,69.8 41.2,43.6 56.5,30.6C56.5,30.6 78.1,13.1 78.5,12.8C78.5,12.7 77.9,1.5 77.9,1.1C77.5,1.4 45.2,30.3 45.2,30.3C33.3,40.7 11.3,64.9 8.9,67.3C8.4,67.7 8.2,68.3 8.2,68.9C8.2,69.5 8.5,70.1 8.9,70.5L9,70.7C16.4,77.7 34.6,95 44.6,104.7C48.1,108.1 49.4,109.2 50.7,110.2L56.6,115C56.6,115 59.3,117.1 60.7,118.1C59.9,117.2 57.6,114.6 57.6,114.6Z"
        style="fill:rgb(255,232,41);" />
    </g>
  </g>
  <g transform="matrix(2.89266,0,0,2.89266,-0.289266,54.7552)">
    <clipPath id="_clip7">
      <path
        d="M77.6,2.2L77.7,2.2L77.6,2.2M145.4,64.6C141.4,60.1 132.9,51 113.4,33C83.9,5.5 78.5,2.6 77.7,2.2C76.9,2.5 71.5,5.4 42.4,32.9C27.6,46.9 17.1,57.2 11,63.6C8.4,66.4 6.6,68.5 6.4,68.8C6.9,69.8 11.1,75.7 42.8,105.1C56.4,117.7 66.4,126.6 72.5,131.6C73.4,132.3 77.5,135.5 77.5,135.5L77.7,135.5C78.1,135.4 82.8,133.7 113.6,104.7C132.6,86.8 141.1,77.8 145.2,73.2L145.4,64.6M6.2,69.3C6.3,69.1 6.3,68.9 6.3,68.8L6.2,69.3" />
    </clipPath>
    <g clip-path="url(#_clip7)">
      <path
        d="M57.5,114.7L55,112.1L19.9,76.9L14.2,71.2L13.9,70.7C13.9,70.5 14,69.9 14,69.9C14.1,69.8 40.8,43.9 56.4,30.6C56.4,30.6 78,13.2 78.4,12.8C78.4,12.7 77.8,1.8 77.8,1.3C77.4,1.6 45.3,30.3 45.3,30.3C33.4,40.7 11.4,65 9,67.4C8.6,67.8 8.3,68.4 8.3,69C8.3,69.6 8.6,70.1 9,70.6L9.1,70.7C16.4,77.7 34.6,94.9 44.7,104.7C48.2,108.1 49.5,109.2 50.8,110.2L50.7,110.2C50.8,110.2 51.4,110.7 56.1,114.5L56.7,115C56.7,115 59.3,117 59.9,117.4C59,116.4 57.5,114.7 57.5,114.7Z"
        style="fill:rgb(255,233,50);" />
    </g>
  </g>
  <g transform="matrix(2.89266,0,0,2.89266,-0.289266,54.7552)">
    <clipPath id="_clip8">
      <path
        d="M77.6,2.2L77.7,2.2L77.6,2.2M145.4,64.6C141.4,60.1 132.9,51 113.4,33C83.9,5.5 78.5,2.6 77.7,2.2C76.9,2.5 71.5,5.4 42.4,32.9C27.6,46.9 17.1,57.2 11,63.6C8.4,66.4 6.6,68.5 6.4,68.8C6.9,69.8 11.1,75.7 42.8,105.1C56.4,117.7 66.4,126.6 72.5,131.6C73.4,132.3 77.5,135.5 77.5,135.5L77.7,135.5C78.1,135.4 82.8,133.7 113.6,104.7C132.6,86.8 141.1,77.8 145.2,73.2L145.4,64.6M6.2,69.3C6.3,69.1 6.3,68.9 6.3,68.8L6.2,69.3" />
    </clipPath>
    <g clip-path="url(#_clip8)">
      <path
        d="M57.4,114.7L54.9,112.1L14.1,71.3L13.8,70.8C13.8,70.6 13.9,69.9 13.9,69.9C13.9,69.8 40.7,43.8 56.4,30.5C56.4,30.5 77.9,13.1 78.4,12.8C78.4,12.7 77.8,2.1 77.8,1.6C77.4,1.9 45.5,30.4 45.5,30.4C33.5,40.8 11.4,65.1 9.1,67.5C8.7,67.9 8.4,68.4 8.4,69C8.4,69.6 8.6,70.1 9.1,70.5L9.2,70.6C16.5,77.6 34.7,94.9 44.8,104.6C48.3,108 49.6,109.1 50.9,110.1C51.2,110.3 52.2,111.1 56.2,114.4L56.8,114.9C56.8,114.9 58.2,116 59.2,116.7C58.8,116.3 57.4,114.7 57.4,114.7Z"
        style="fill:rgb(255,233,59);" />
    </g>
  </g>
  <g transform="matrix(2.89266,0,0,2.89266,-0.289266,54.7552)">
    <clipPath id="_clip9">
      <path
        d="M77.6,2.2L77.7,2.2L77.6,2.2M145.4,64.6C141.4,60.1 132.9,51 113.4,33C83.9,5.5 78.5,2.6 77.7,2.2C76.9,2.5 71.5,5.4 42.4,32.9C27.6,46.9 17.1,57.2 11,63.6C8.4,66.4 6.6,68.5 6.4,68.8C6.9,69.8 11.1,75.7 42.8,105.1C56.4,117.7 66.4,126.6 72.5,131.6C73.4,132.3 77.5,135.5 77.5,135.5L77.7,135.5C78.1,135.4 82.8,133.7 113.6,104.7C132.6,86.8 141.1,77.8 145.2,73.2L145.4,64.6M6.2,69.3C6.3,69.1 6.3,68.9 6.3,68.8L6.2,69.3" />
    </clipPath>
    <g clip-path="url(#_clip9)">
      <path
        d="M57.3,114.8L54.8,112.2L19.7,77.1L14,71.3L13.7,70.8L13.7,70.7L13.8,69.8C13.8,69.7 40.2,44 56.3,30.3C56.3,30.3 77.8,12.9 78.2,12.6C78.2,12.5 77.6,2.1 77.6,1.7C77.2,2 45.4,30.4 45.4,30.4C33.6,40.9 11.5,65.2 9.1,67.5C8.7,67.9 8.5,68.4 8.5,68.9C8.5,69.4 8.7,69.9 9.1,70.3L9.2,70.4C16.5,77.4 34.7,94.7 44.8,104.4C48.3,107.8 49.6,108.8 50.9,109.9C51.2,110.2 56.8,114.7 56.8,114.7C56.8,114.7 57.6,115.3 58.3,115.8C57.8,115.4 57.3,114.8 57.3,114.8Z"
        style="fill:rgb(255,233,67);" />
    </g>
  </g>
  <g transform="matrix(2.89266,0,0,2.89266,-0.289266,54.7552)">
    <clipPath id="_clip10">
      <path
        d="M77.6,2.2L77.7,2.2L77.6,2.2M145.4,64.6C141.4,60.1 132.9,51 113.4,33C83.9,5.5 78.5,2.6 77.7,2.2C76.9,2.5 71.5,5.4 42.4,32.9C27.6,46.9 17.1,57.2 11,63.6C8.4,66.4 6.6,68.5 6.4,68.8C6.9,69.8 11.1,75.7 42.8,105.1C56.4,117.7 66.4,126.6 72.5,131.6C73.4,132.3 77.5,135.5 77.5,135.5L77.7,135.5C78.1,135.4 82.8,133.7 113.6,104.7C132.6,86.8 141.1,77.8 145.2,73.2L145.4,64.6M6.2,69.3C6.3,69.1 6.3,68.9 6.3,68.8L6.2,69.3" />
    </clipPath>
    <g clip-path="url(#_clip10)">
      <path
        d="M57.2,114.9L54.7,112.3L19.7,77.1L14,71.4L13.7,70.9L13.7,70.8L13.8,69.9C13.9,69.6 41.1,43.3 56.3,30.4C56.3,30.4 77.8,13.1 78.2,12.7C78.2,12.6 77.6,2.5 77.6,2.1C77.2,2.4 45.6,30.6 45.6,30.6C33.7,40.9 11.6,65.2 9.2,67.6C8.8,68 8.6,68.4 8.6,68.9C8.6,69.4 8.8,69.9 9.2,70.2L9.3,70.3C16.6,77.3 34.8,94.6 44.9,104.3C48.4,107.7 49.7,108.7 51,109.8L56.9,114.6C56.9,114.6 57,114.7 57.5,115.1C57.4,115.1 57.2,114.9 57.2,114.9Z"
        style="fill:rgb(255,234,74);" />
    </g>
  </g>
  <g transform="matrix(2.89266,0,0,2.89266,-0.289266,54.7552)">
    <clipPath id="_clip11">
      <path
        d="M77.6,2.2L77.7,2.2L77.6,2.2M145.4,64.6C141.4,60.1 132.9,51 113.4,33C83.9,5.5 78.5,2.6 77.7,2.2C76.9,2.5 71.5,5.4 42.4,32.9C27.6,46.9 17.1,57.2 11,63.6C8.4,66.4 6.6,68.5 6.4,68.8C6.9,69.8 11.1,75.7 42.8,105.1C56.4,117.7 66.4,126.6 72.5,131.6C73.4,132.3 77.5,135.5 77.5,135.5L77.7,135.5C78.1,135.4 82.8,133.7 113.6,104.7C132.6,86.8 141.1,77.8 145.2,73.2L145.4,64.6M6.2,69.3C6.3,69.1 6.3,68.9 6.3,68.8L6.2,69.3" />
    </clipPath>
    <g clip-path="url(#_clip11)">
      <path
        d="M54.7,112.4L19.6,77.2L13.9,71.5L13.5,71L13.5,70.8L13.6,69.9C13.7,69.6 40.9,43.3 56.2,30.3C56.2,30.3 77.6,13 78,12.7C78,12.6 77.4,2.8 77.4,2.4C77,2.6 45.6,30.6 45.6,30.6C33.7,41 11.7,65.3 9.3,67.7C8.9,68 8.7,68.5 8.7,69C8.7,69.5 8.9,69.9 9.3,70.3L9.4,70.4C16.7,77.4 34.9,94.6 45,104.4C48.5,107.8 49.8,108.8 51,109.9C51,109.9 55.6,113.6 56.4,114.3C55.7,113.4 54.7,112.4 54.7,112.4Z"
        style="fill:rgb(255,235,81);" />
    </g>
  </g>
  <g transform="matrix(2.89266,0,0,2.89266,-0.289266,54.7552)">
    <clipPath id="_clip12">
      <path
        d="M77.6,2.2L77.7,2.2L77.6,2.2M145.4,64.6C141.4,60.1 132.9,51 113.4,33C83.9,5.5 78.5,2.6 77.7,2.2C76.9,2.5 71.5,5.4 42.4,32.9C27.6,46.9 17.1,57.2 11,63.6C8.4,66.4 6.6,68.5 6.4,68.8C6.9,69.8 11.1,75.7 42.8,105.1C56.4,117.7 66.4,126.6 72.5,131.6C73.4,132.3 77.5,135.5 77.5,135.5L77.7,135.5C78.1,135.4 82.8,133.7 113.6,104.7C132.6,86.8 141.1,77.8 145.2,73.2L145.4,64.6M6.2,69.3C6.3,69.1 6.3,68.9 6.3,68.8L6.2,69.3" />
    </clipPath>
    <g clip-path="url(#_clip12)">
      <path
        d="M54.6,112.5L19.5,77.3L13.8,71.6L13.4,70.8L13.5,69.8C13.6,69.5 40.7,43.2 56.1,30.1C56.1,30.1 77.5,12.8 77.9,12.5C77.9,12.4 77.3,2.9 77.3,2.5C76.9,2.8 45.7,30.7 45.7,30.7C33.9,41 11.7,65.4 9.4,67.8C9.1,68.1 8.9,68.6 8.9,69C8.9,69.4 9.1,69.9 9.4,70.2L9.5,70.3C16.8,77.2 34.9,94.5 45.1,104.3C48.6,107.7 49.9,108.7 51.1,109.7C51.1,109.7 54.9,112.8 55.1,113L54.6,112.5Z"
        style="fill:rgb(255,235,88);" />
    </g>
  </g>
  <g transform="matrix(2.89266,0,0,2.89266,-0.289266,54.7552)">
    <clipPath id="_clip13">
      <path
        d="M77.6,2.2L77.7,2.2L77.6,2.2M145.4,64.6C141.4,60.1 132.9,51 113.4,33C83.9,5.5 78.5,2.6 77.7,2.2C76.9,2.5 71.5,5.4 42.4,32.9C27.6,46.9 17.1,57.2 11,63.6C8.4,66.4 6.6,68.5 6.4,68.8C6.9,69.8 11.1,75.7 42.8,105.1C56.4,117.7 66.4,126.6 72.5,131.6C73.4,132.3 77.5,135.5 77.5,135.5L77.7,135.5C78.1,135.4 82.8,133.7 113.6,104.7C132.6,86.8 141.1,77.8 145.2,73.2L145.4,64.6M6.2,69.3C6.3,69.1 6.3,68.9 6.3,68.8L6.2,69.3" />
    </clipPath>
    <g clip-path="url(#_clip13)">
      <path
        d="M19.4,77.4L13.7,71.7L13.3,71.1L13.2,70.9L13.2,70.8L13.3,69.8C13.4,69.5 40.5,43.1 56,30.1C56,30.1 77.4,12.9 77.8,12.5C77.8,12.4 77.2,3.2 77.2,2.7C76.8,3 45.7,30.8 45.7,30.8C33.9,41.1 11.8,65.5 9.4,67.8C9.1,68.1 8.9,68.5 8.9,68.9C8.9,69.3 9.1,69.7 9.4,70L9.5,70.1C16.8,77 34.9,94.2 45.1,104.1C48.6,107.5 49.9,108.5 51.1,109.5C51.1,109.5 52.5,110.6 53.6,111.5C50.7,108.7 39.2,97.2 19.4,77.4Z"
        style="fill:rgb(255,236,94);" />
    </g>
  </g>
  <g transform="matrix(2.89266,0,0,2.89266,-0.289266,54.7552)">
    <clipPath id="_clip14">
      <path
        d="M77.6,2.2L77.7,2.2L77.6,2.2M145.4,64.6C141.4,60.1 132.9,51 113.4,33C83.9,5.5 78.5,2.6 77.7,2.2C76.9,2.5 71.5,5.4 42.4,32.9C27.6,46.9 17.1,57.2 11,63.6C8.4,66.4 6.6,68.5 6.4,68.8C6.9,69.8 11.1,75.7 42.8,105.1C56.4,117.7 66.4,126.6 72.5,131.6C73.4,132.3 77.5,135.5 77.5,135.5L77.7,135.5C78.1,135.4 82.8,133.7 113.6,104.7C132.6,86.8 141.1,77.8 145.2,73.2L145.4,64.6M6.2,69.3C6.3,69.1 6.3,68.9 6.3,68.8L6.2,69.3" />
    </clipPath>
    <g clip-path="url(#_clip14)">
      <path
        d="M13.7,71.7L13.3,71.1L13.2,70.9L13.2,70.8L13.3,69.8C13.4,69.5 40.5,43.1 56,30C56,30 77.3,12.8 77.7,12.5C77.7,12.4 77.1,3.5 77.1,3C76.7,3.3 45.8,30.9 45.8,30.9C34,41.2 11.9,65.5 9.5,67.9C9.2,68.2 9,68.6 9,68.9C9,69.3 9.2,69.6 9.5,69.9L9.6,70C16.9,77 35,94.2 45.2,104C48.7,107.4 50,108.4 51.2,109.4C51.2,109.4 51.6,109.7 52.1,110.1C49.6,107.7 13.7,71.7 13.7,71.7ZM13.6,71.8L13.2,71.2L13.1,71L13.1,70.9L13.2,69.9C13.3,69.6 40.4,43.1 55.9,30C55.9,30 77.2,12.8 77.6,12.5C77.6,12.4 77,3.7 77,3.3C76.6,3.6 45.9,31 45.9,31C34.2,41.2 12,65.6 9.6,68C9.3,68.3 9.1,68.6 9.1,69C9.1,69.4 9.3,69.7 9.5,70L9.7,70C17,77 35.1,94.2 45.3,104C48.1,106.7 49.5,107.9 50.6,108.8C47.8,106.1 13.6,71.8 13.6,71.8Z"
        style="fill:rgb(255,236,100);" />
    </g>
  </g>
  <g transform="matrix(2.89266,0,0,2.89266,-0.289266,54.7552)">
    <clipPath id="_clip15">
      <path
        d="M77.6,2.2L77.7,2.2L77.6,2.2M145.4,64.6C141.4,60.1 132.9,51 113.4,33C83.9,5.5 78.5,2.6 77.7,2.2C76.9,2.5 71.5,5.4 42.4,32.9C27.6,46.9 17.1,57.2 11,63.6C8.4,66.4 6.6,68.5 6.4,68.8C6.9,69.8 11.1,75.7 42.8,105.1C56.4,117.7 66.4,126.6 72.5,131.6C73.4,132.3 77.5,135.5 77.5,135.5L77.7,135.5C78.1,135.4 82.8,133.7 113.6,104.7C132.6,86.8 141.1,77.8 145.2,73.2L145.4,64.6M6.2,69.3C6.3,69.1 6.3,68.9 6.3,68.8L6.2,69.3" />
    </clipPath>
    <g clip-path="url(#_clip15)">
      <path
        d="M13.5,71.9L13.1,71.3L13,71L13,70.8L13.1,69.8C13.2,69.5 40.3,43 55.9,29.8C55.9,29.8 77.2,12.7 77.6,12.3C77.6,12.2 77,3.8 77,3.4C76.5,3.8 45.9,31 45.9,31C34.2,41.3 12,65.6 9.6,68C9.3,68.2 9.2,68.6 9.2,68.9C9.2,69.2 9.3,69.5 9.6,69.8L9.7,69.9C15.4,75.3 34.7,93.7 45.3,103.9C46.5,105 47.4,105.9 48.1,106.6C44.2,102.7 13.5,71.9 13.5,71.9ZM13.4,71.9L13,71.3L12.9,71L12.9,70.8L13,69.8C13.1,69.5 40.2,43 55.8,29.8C55.8,29.8 77,12.7 77.4,12.3C77.4,12.2 76.8,4.1 76.8,3.7C76.4,4 46,31.1 46,31.1C34.3,41.4 12.1,65.7 9.7,68.1C9.5,68.3 9.3,68.6 9.3,68.9C9.3,69.2 9.4,69.5 9.7,69.7L9.8,69.8C14.9,74.6 30.9,89.8 41.8,100.3L13.4,71.9Z"
        style="fill:rgb(255,237,106);" />
    </g>
  </g>
  <g transform="matrix(2.89266,0,0,2.89266,-0.289266,54.7552)">
    <clipPath id="_clip16">
      <path
        d="M77.6,2.2L77.7,2.2L77.6,2.2M145.4,64.6C141.4,60.1 132.9,51 113.4,33C83.9,5.5 78.5,2.6 77.7,2.2C76.9,2.5 71.5,5.4 42.4,32.9C27.6,46.9 17.1,57.2 11,63.6C8.4,66.4 6.6,68.5 6.4,68.8C6.9,69.8 11.1,75.7 42.8,105.1C56.4,117.7 66.4,126.6 72.5,131.6C73.4,132.3 77.5,135.5 77.5,135.5L77.7,135.5C78.1,135.4 82.8,133.7 113.6,104.7C132.6,86.8 141.1,77.8 145.2,73.2L145.4,64.6M6.2,69.3C6.3,69.1 6.3,68.9 6.3,68.8L6.2,69.3" />
    </clipPath>
    <g clip-path="url(#_clip16)">
      <path
        d="M13.4,72L13,71.3L12.9,71L12.9,70.8L13,69.7C13.1,69.4 40.3,42.8 55.8,29.6C55.8,29.6 77,12.5 77.4,12.2C77.4,12.1 76.8,4.3 76.8,3.9C76.4,4.2 46.3,31.2 46.3,31.2C34.6,41.5 12.4,65.8 10,68.2C9.8,68.4 9.6,68.7 9.6,68.9C9.6,69.2 9.7,69.4 9.9,69.6C9.9,69.6 26.4,85.3 35.7,94.2C28,86.7 13.4,72 13.4,72Z"
        style="fill:rgb(255,238,118);" />
    </g>
  </g>
  <g transform="matrix(2.89266,0,0,2.89266,-0.289266,54.7552)">
    <clipPath id="_clip17">
      <path
        d="M77.6,2.2L77.7,2.2L77.6,2.2M145.4,64.6C141.4,60.1 132.9,51 113.4,33C83.9,5.5 78.5,2.6 77.7,2.2C76.9,2.5 71.5,5.4 42.4,32.9C27.6,46.9 17.1,57.2 11,63.6C8.4,66.4 6.6,68.5 6.4,68.8C6.9,69.8 11.1,75.7 42.8,105.1C56.4,117.7 66.4,126.6 72.5,131.6C73.4,132.3 77.5,135.5 77.5,135.5L77.7,135.5C78.1,135.4 82.8,133.7 113.6,104.7C132.6,86.8 141.1,77.8 145.2,73.2L145.4,64.6M6.2,69.3C6.3,69.1 6.3,68.9 6.3,68.8L6.2,69.3" />
    </clipPath>
    <g clip-path="url(#_clip17)">
      <path
        d="M13.3,72.1L12.8,71.4L12.6,70.8L12.7,69.7C12.8,69.4 40,42.8 55.6,29.5C55.6,29.5 76.7,12.5 77.1,12.1C77.1,12 76.5,4.5 76.5,4C76.1,4.3 46.1,31.1 46.1,31.1C34.4,41.4 12.2,65.7 9.8,68.1C9.6,68.3 9.5,68.5 9.5,68.8C9.5,69 9.6,69.3 9.8,69.4L29.3,88C22.9,81.7 13.3,72.1 13.3,72.1Z"
        style="fill:rgb(255,238,123);" />
    </g>
  </g>
  <g transform="matrix(2.89266,0,0,2.89266,-0.289266,54.7552)">
    <clipPath id="_clip18">
      <path
        d="M77.6,2.2L77.7,2.2L77.6,2.2M145.4,64.6C141.4,60.1 132.9,51 113.4,33C83.9,5.5 78.5,2.6 77.7,2.2C76.9,2.5 71.5,5.4 42.4,32.9C27.6,46.9 17.1,57.2 11,63.6C8.4,66.4 6.6,68.5 6.4,68.8C6.9,69.8 11.1,75.7 42.8,105.1C56.4,117.7 66.4,126.6 72.5,131.6C73.4,132.3 77.5,135.5 77.5,135.5L77.7,135.5C78.1,135.4 82.8,133.7 113.6,104.7C132.6,86.8 141.1,77.8 145.2,73.2L145.4,64.6M6.2,69.3C6.3,69.1 6.3,68.9 6.3,68.8L6.2,69.3" />
    </clipPath>
    <g clip-path="url(#_clip18)">
      <path
        d="M13.2,72.2L13.1,72.1L12.7,71.5L12.5,70.9L12.6,69.8C12.7,69.5 39.9,42.8 55.5,29.5C55.5,29.5 76.6,12.5 77,12.1C77,12 76.4,4.8 76.4,4.3C76,4.6 46.2,31.3 46.2,31.3C34.6,41.6 12.4,66 10,68.3C9.8,68.5 9.7,68.7 9.7,68.9C9.7,69.1 9.8,69.3 10,69.5C10,69.5 18.5,77.6 23.2,82.1C18.4,77.4 13.2,72.2 13.2,72.2Z"
        style="fill:rgb(255,239,129);" />
    </g>
  </g>
  <g transform="matrix(2.89266,0,0,2.89266,-0.289266,54.7552)">
    <clipPath id="_clip19">
      <path
        d="M77.6,2.2L77.7,2.2L77.6,2.2M145.4,64.6C141.4,60.1 132.9,51 113.4,33C83.9,5.5 78.5,2.6 77.7,2.2C76.9,2.5 71.5,5.4 42.4,32.9C27.6,46.9 17.1,57.2 11,63.6C8.4,66.4 6.6,68.5 6.4,68.8C6.9,69.8 11.1,75.7 42.8,105.1C56.4,117.7 66.4,126.6 72.5,131.6C73.4,132.3 77.5,135.5 77.5,135.5L77.7,135.5C78.1,135.4 82.8,133.7 113.6,104.7C132.6,86.8 141.1,77.8 145.2,73.2L145.4,64.6M6.2,69.3C6.3,69.1 6.3,68.9 6.3,68.8L6.2,69.3" />
    </clipPath>
    <g clip-path="url(#_clip19)">
      <path
        d="M13.1,72.2L13,72.1L13.1,72.2C13,72 12.9,71.9 12.6,71.5L12.4,70.9L12.5,69.8C12.6,69.5 39.8,42.8 55.4,29.5C55.4,29.5 76.5,12.5 76.9,12.2C76.9,12.1 76.3,5.1 76.3,4.7C75.9,5 46.3,31.5 46.3,31.5C34.7,41.6 12.4,66 10,68.4C9.8,68.6 9.7,68.7 9.7,68.9C9.7,69.1 9.8,69.3 9.9,69.4C9.9,69.4 14.8,74.1 16.7,75.9C15.1,74.2 13.1,72.2 13.1,72.2Z"
        style="fill:rgb(255,239,134);" />
    </g>
  </g>
  <g transform="matrix(2.89266,0,0,2.89266,-0.289266,54.7552)">
    <clipPath id="_clip20">
      <path
        d="M77.6,2.2L77.7,2.2L77.6,2.2M145.4,64.6C141.4,60.1 132.9,51 113.4,33C83.9,5.5 78.5,2.6 77.7,2.2C76.9,2.5 71.5,5.4 42.4,32.9C27.6,46.9 17.1,57.2 11,63.6C8.4,66.4 6.6,68.5 6.4,68.8C6.9,69.8 11.1,75.7 42.8,105.1C56.4,117.7 66.4,126.6 72.5,131.6C73.4,132.3 77.5,135.5 77.5,135.5L77.7,135.5C78.1,135.4 82.8,133.7 113.6,104.7C132.6,86.8 141.1,77.8 145.2,73.2L145.4,64.6M6.2,69.3C6.3,69.1 6.3,68.9 6.3,68.8L6.2,69.3" />
    </clipPath>
    <g clip-path="url(#_clip20)">
      <path
        d="M12.6,71.6L12.4,71.2L12.3,70.9L12.4,69.8C12.5,69.5 39.7,42.7 55.4,29.4C55.4,29.4 76.4,12.4 76.8,12.1C76.8,12 76.2,5.3 76.2,4.9C75.8,5.2 46.4,31.5 46.4,31.5C34.8,41.7 12.6,66.1 10.2,68.5C10.1,68.6 10,68.8 10,68.9C10,69 10.1,69.2 10.2,69.3C10.2,69.3 12,71 12.9,71.9C12.7,71.8 12.6,71.6 12.6,71.6Z"
        style="fill:rgb(255,240,139);" />
    </g>
  </g>
  <g transform="matrix(2.89266,0,0,2.89266,-0.289266,54.7552)">
    <clipPath id="_clip21">
      <path
        d="M77.6,2.2L77.7,2.2L77.6,2.2M145.4,64.6C141.4,60.1 132.9,51 113.4,33C83.9,5.5 78.5,2.6 77.7,2.2C76.9,2.5 71.5,5.4 42.4,32.9C27.6,46.9 17.1,57.2 11,63.6C8.4,66.4 6.6,68.5 6.4,68.8C6.9,69.8 11.1,75.7 42.8,105.1C56.4,117.7 66.4,126.6 72.5,131.6C73.4,132.3 77.5,135.5 77.5,135.5L77.7,135.5C78.1,135.4 82.8,133.7 113.6,104.7C132.6,86.8 141.1,77.8 145.2,73.2L145.4,64.6M6.2,69.3C6.3,69.1 6.3,68.9 6.3,68.8L6.2,69.3" />
    </clipPath>
    <g clip-path="url(#_clip21)">
      <path
        d="M12.3,71.3L12.2,71L12.3,69.8C12.4,69.5 39.6,42.7 55.3,29.3C55.3,29.3 76.3,12.4 76.7,12C76.7,11.9 76.1,5.5 76.1,5.1C75.7,5.4 46.4,31.6 46.4,31.6C34.8,41.8 12.6,66.2 10.2,68.6C10.1,68.7 10,68.9 10,69C10,69.1 10.1,69.2 10.2,69.3C10.2,69.3 11.8,70.8 12.4,71.4L12.3,71.3Z"
        style="fill:rgb(255,241,144);" />
    </g>
  </g>
  <g transform="matrix(2.89266,0,0,2.89266,-0.289266,54.7552)">
    <clipPath id="_clip22">
      <path
        d="M77.6,2.2L77.7,2.2L77.6,2.2M145.4,64.6C141.4,60.1 132.9,51 113.4,33C83.9,5.5 78.5,2.6 77.7,2.2C76.9,2.5 71.5,5.4 42.4,32.9C27.6,46.9 17.1,57.2 11,63.6C8.4,66.4 6.6,68.5 6.4,68.8C6.9,69.8 11.1,75.7 42.8,105.1C56.4,117.7 66.4,126.6 72.5,131.6C73.4,132.3 77.5,135.5 77.5,135.5L77.7,135.5C78.1,135.4 82.8,133.7 113.6,104.7C132.6,86.8 141.1,77.8 145.2,73.2L145.4,64.6M6.2,69.3C6.3,69.1 6.3,68.9 6.3,68.8L6.2,69.3" />
    </clipPath>
    <g clip-path="url(#_clip22)">
      <path
        d="M12.1,70.9L12.2,69.7C12.3,69.4 39.5,42.5 55.3,29.1C55.3,29.1 76.3,12.2 76.7,11.9C76.7,11.8 76.1,5.7 76.1,5.3C75.7,5.6 46.6,31.6 46.6,31.6C35.1,41.7 12.8,66.2 10.4,68.6L10.2,68.9L10.3,69.2C10.3,69.2 11.9,70.8 12.2,71L12.1,70.9Z"
        style="fill:rgb(255,241,149);" />
    </g>
  </g>
  <g transform="matrix(2.89266,0,0,2.89266,-0.289266,54.7552)">
    <clipPath id="_clip23">
      <path
        d="M77.6,2.2L77.7,2.2L77.6,2.2M145.4,64.6C141.4,60.1 132.9,51 113.4,33C83.9,5.5 78.5,2.6 77.7,2.2C76.9,2.5 71.5,5.4 42.4,32.9C27.6,46.9 17.1,57.2 11,63.6C8.4,66.4 6.6,68.5 6.4,68.8C6.9,69.8 11.1,75.7 42.8,105.1C56.4,117.7 66.4,126.6 72.5,131.6C73.4,132.3 77.5,135.5 77.5,135.5L77.7,135.5C78.1,135.4 82.8,133.7 113.6,104.7C132.6,86.8 141.1,77.8 145.2,73.2L145.4,64.6M6.2,69.3C6.3,69.1 6.3,68.9 6.3,68.8L6.2,69.3" />
    </clipPath>
    <g clip-path="url(#_clip23)">
      <path
        d="M12.1,69.7C12.2,69.4 39.4,42.5 55.2,29.1C55.4,28.9 75.8,12.5 76.5,11.9L76.5,10.4C76.5,10.4 75.9,6 75.9,5.6C75.6,5.9 46.6,31.8 46.6,31.8C37.6,39.7 22,56.3 14.6,64.3L10.4,68.7L10.3,68.9L10.4,69.1C10.4,69.1 11.6,70.3 12.1,70.7C12,70.5 12.1,69.7 12.1,69.7Z"
        style="fill:rgb(255,242,154);" />
    </g>
  </g>
  <g transform="matrix(2.89266,0,0,2.89266,-0.289266,54.7552)">
    <clipPath id="_clip24">
      <path
        d="M77.6,2.2L77.7,2.2L77.6,2.2M145.4,64.6C141.4,60.1 132.9,51 113.4,33C83.9,5.5 78.5,2.6 77.7,2.2C76.9,2.5 71.5,5.4 42.4,32.9C27.6,46.9 17.1,57.2 11,63.6C8.4,66.4 6.6,68.5 6.4,68.8C6.9,69.8 11.1,75.7 42.8,105.1C56.4,117.7 66.4,126.6 72.5,131.6C73.4,132.3 77.5,135.5 77.5,135.5L77.7,135.5C78.1,135.4 82.8,133.7 113.6,104.7C132.6,86.8 141.1,77.8 145.2,73.2L145.4,64.6M6.2,69.3C6.3,69.1 6.3,68.9 6.3,68.8L6.2,69.3" />
    </clipPath>
    <g clip-path="url(#_clip24)">
      <path
        d="M12,69.7C12.1,69.4 39.3,42.4 55.1,29C55.1,29 76,12.2 76.4,11.8L76.4,10.4C76.4,10.4 75.9,6.7 75.8,5.7C75.5,6 46.7,31.7 46.7,31.7C37.7,39.6 22.2,56.2 14.7,64.2L10.5,68.6L10.5,68.5L10.4,68.8L10.5,69C10.6,69.1 11,69.5 12.1,70.4C12,70.3 12,69.7 12,69.7Z"
        style="fill:rgb(255,242,159);" />
    </g>
  </g>
  <g transform="matrix(2.89266,0,0,2.89266,-0.289266,54.7552)">
    <clipPath id="_clip25">
      <path
        d="M77.6,2.2L77.7,2.2L77.6,2.2M145.4,64.6C141.4,60.1 132.9,51 113.4,33C83.9,5.5 78.5,2.6 77.7,2.2C76.9,2.5 71.5,5.4 42.4,32.9C27.6,46.9 17.1,57.2 11,63.6C8.4,66.4 6.6,68.5 6.4,68.8C6.9,69.8 11.1,75.7 42.8,105.1C56.4,117.7 66.4,126.6 72.5,131.6C73.4,132.3 77.5,135.5 77.5,135.5L77.7,135.5C78.1,135.4 82.8,133.7 113.6,104.7C132.6,86.8 141.1,77.8 145.2,73.2L145.4,64.6M6.2,69.3C6.3,69.1 6.3,68.9 6.3,68.8L6.2,69.3" />
    </clipPath>
    <g clip-path="url(#_clip25)">
      <path
        d="M11.9,69.7C12,69.4 39.2,42.4 55,28.9C55,28.9 75.8,12.1 76.2,11.8L76.2,10.4C76.2,10.4 75.7,6.9 75.7,6C75.4,6.3 46.7,31.9 46.7,31.9C37.7,39.8 22.2,56.4 14.7,64.4L10.5,68.9L10.6,69L10.5,69C10.6,69.1 11,69.4 11.9,70.3L11.9,69.7Z"
        style="fill:rgb(255,243,163);" />
    </g>
  </g>
  <g transform="matrix(2.89266,0,0,2.89266,-0.289266,54.7552)">
    <clipPath id="_clip26">
      <path
        d="M77.6,2.2L77.7,2.2L77.6,2.2M145.4,64.6C141.4,60.1 132.9,51 113.4,33C83.9,5.5 78.5,2.6 77.7,2.2C76.9,2.5 71.5,5.4 42.4,32.9C27.6,46.9 17.1,57.2 11,63.6C8.4,66.4 6.6,68.5 6.4,68.8C6.9,69.8 11.1,75.7 42.8,105.1C56.4,117.7 66.4,126.6 72.5,131.6C73.4,132.3 77.5,135.5 77.5,135.5L77.7,135.5C78.1,135.4 82.8,133.7 113.6,104.7C132.6,86.8 141.1,77.8 145.2,73.2L145.4,64.6M6.2,69.3C6.3,69.1 6.3,68.9 6.3,68.8L6.2,69.3" />
    </clipPath>
    <g clip-path="url(#_clip26)">
      <path
        d="M11.8,69.7C11.9,69.3 39.2,42.3 55,28.8L66.6,19.3L76.2,11.7C76.2,11.6 75.6,7.1 75.6,6.2C75.2,6.5 46.8,32 46.8,32C37.8,39.9 22.3,56.5 14.8,64.5C14.7,64.6 14.6,64.8 14.2,65.2L10.6,69L10.6,69.1C10.8,69.2 11.1,69.5 11.7,70.2C11.8,69.9 11.8,69.7 11.8,69.7Z"
        style="fill:rgb(255,243,168);" />
    </g>
  </g>
  <g transform="matrix(2.89266,0,0,2.89266,-0.289266,54.7552)">
    <clipPath id="_clip27">
      <path
        d="M77.6,2.2L77.7,2.2L77.6,2.2M145.4,64.6C141.4,60.1 132.9,51 113.4,33C83.9,5.5 78.5,2.6 77.7,2.2C76.9,2.5 71.5,5.4 42.4,32.9C27.6,46.9 17.1,57.2 11,63.6C8.4,66.4 6.6,68.5 6.4,68.8C6.9,69.8 11.1,75.7 42.8,105.1C56.4,117.7 66.4,126.6 72.5,131.6C73.4,132.3 77.5,135.5 77.5,135.5L77.7,135.5C78.1,135.4 82.8,133.7 113.6,104.7C132.6,86.8 141.1,77.8 145.2,73.2L145.4,64.6M6.2,69.3C6.3,69.1 6.3,68.9 6.3,68.8L6.2,69.3" />
    </clipPath>
    <g clip-path="url(#_clip27)">
      <path
        d="M11.7,69.7C11.8,69.3 39.1,42.2 54.9,28.8C54.9,28.7 55,28.7 55.2,28.5L76,11.7C76,11.6 75.4,6.9 75.4,6.5C75.1,6.8 46.8,32 46.8,32C37.8,39.9 22.3,56.5 14.8,64.5L14.2,65.1C14.2,65.1 11,68.5 10.6,68.9C10.7,69 11.3,69.5 11.5,69.8L11.7,69.7Z"
        style="fill:rgb(255,244,173);" />
    </g>
  </g>
  <g transform="matrix(2.89266,0,0,2.89266,-0.289266,54.7552)">
    <clipPath id="_clip28">
      <path
        d="M77.6,2.2L77.7,2.2L77.6,2.2M145.4,64.6C141.4,60.1 132.9,51 113.4,33C83.9,5.5 78.5,2.6 77.7,2.2C76.9,2.5 71.5,5.4 42.4,32.9C27.6,46.9 17.1,57.2 11,63.6C8.4,66.4 6.6,68.5 6.4,68.8C6.9,69.8 11.1,75.7 42.8,105.1C56.4,117.7 66.4,126.6 72.5,131.6C73.4,132.3 77.5,135.5 77.5,135.5L77.7,135.5C78.1,135.4 82.8,133.7 113.6,104.7C132.6,86.8 141.1,77.8 145.2,73.2L145.4,64.6M6.2,69.3C6.3,69.1 6.3,68.9 6.3,68.8L6.2,69.3" />
    </clipPath>
    <g clip-path="url(#_clip28)">
      <path
        d="M46.9,32.1C37.9,40 22.4,56.6 14.9,64.6L14.3,65.2C14.3,65.2 11.2,68.5 10.8,68.9L11.5,69.6C11.6,69.3 38.9,42.1 54.8,28.7L55.1,28.4C55.1,28.4 75.4,12 75.9,11.6C75.9,11.5 75.8,10.4 75.8,10.4C75.6,9.1 75.4,7.2 75.4,6.6C75.1,7 46.9,32.1 46.9,32.1Z"
        style="fill:rgb(255,244,177);" />
    </g>
  </g>
  <g transform="matrix(2.89266,0,0,2.89266,-0.289266,54.7552)">
    <clipPath id="_clip29">
      <path
        d="M77.6,2.2L77.7,2.2L77.6,2.2M145.4,64.6C141.4,60.1 132.9,51 113.4,33C83.9,5.5 78.5,2.6 77.7,2.2C76.9,2.5 71.5,5.4 42.4,32.9C27.6,46.9 17.1,57.2 11,63.6C8.4,66.4 6.6,68.5 6.4,68.8C6.9,69.8 11.1,75.7 42.8,105.1C56.4,117.7 66.4,126.6 72.5,131.6C73.4,132.3 77.5,135.5 77.5,135.5L77.7,135.5C78.1,135.4 82.8,133.7 113.6,104.7C132.6,86.8 141.1,77.8 145.2,73.2L145.4,64.6M6.2,69.3C6.3,69.1 6.3,68.9 6.3,68.8L6.2,69.3" />
    </clipPath>
    <g clip-path="url(#_clip29)">
      <path
        d="M47,32.2C38,40.1 22.5,56.7 15,64.7C15,64.7 11.4,68.6 11,68.9L11.6,69.4C13.4,67.4 39.5,41.6 54.8,28.6L55.1,28.3C55.1,28.3 75.2,12.1 75.8,11.6C75.8,11.5 75.7,10.4 75.7,10.4C75.7,10.4 75.4,7.6 75.3,6.8C75,7.2 47,32.2 47,32.2Z"
        style="fill:rgb(255,245,181);" />
    </g>
  </g>
  <g transform="matrix(2.89266,0,0,2.89266,-0.289266,54.7552)">
    <clipPath id="_clip30">
      <path
        d="M77.6,2.2L77.7,2.2L77.6,2.2M145.4,64.6C141.4,60.1 132.9,51 113.4,33C83.9,5.5 78.5,2.6 77.7,2.2C76.9,2.5 71.5,5.4 42.4,32.9C27.6,46.9 17.1,57.2 11,63.6C8.4,66.4 6.6,68.5 6.4,68.8C6.9,69.8 11.1,75.7 42.8,105.1C56.4,117.7 66.4,126.6 72.5,131.6C73.4,132.3 77.5,135.5 77.5,135.5L77.7,135.5C78.1,135.4 82.8,133.7 113.6,104.7C132.6,86.8 141.1,77.8 145.2,73.2L145.4,64.6M6.2,69.3C6.3,69.1 6.3,68.9 6.3,68.8L6.2,69.3" />
    </clipPath>
    <g clip-path="url(#_clip30)">
      <path
        d="M47.1,32.3C38.1,40.2 22.6,56.8 15.2,64.8C15.2,64.8 11.4,68.9 11.2,69L11.6,69.4C13.8,67 39.6,41.4 54.7,28.6L55,28.3L75.7,11.6C75.7,11.5 75.6,10.5 75.6,10.5C75.6,10.5 75.3,7.9 75.2,7.1C74.9,7.4 47.1,32.3 47.1,32.3Z"
        style="fill:rgb(255,245,186);" />
    </g>
  </g>
  <g transform="matrix(2.89266,0,0,2.89266,-0.289266,54.7552)">
    <clipPath id="_clip31">
      <path
        d="M77.6,2.2L77.7,2.2L77.6,2.2M145.4,64.6C141.4,60.1 132.9,51 113.4,33C83.9,5.5 78.5,2.6 77.7,2.2C76.9,2.5 71.5,5.4 42.4,32.9C27.6,46.9 17.1,57.2 11,63.6C8.4,66.4 6.6,68.5 6.4,68.8C6.9,69.8 11.1,75.7 42.8,105.1C56.4,117.7 66.4,126.6 72.5,131.6C73.4,132.3 77.5,135.5 77.5,135.5L77.7,135.5C78.1,135.4 82.8,133.7 113.6,104.7C132.6,86.8 141.1,77.8 145.2,73.2L145.4,64.6M6.2,69.3C6.3,69.1 6.3,68.9 6.3,68.8L6.2,69.3" />
    </clipPath>
    <g clip-path="url(#_clip31)">
      <path
        d="M47.1,32.4C38.1,40.3 22.6,56.9 15.2,64.8C15.2,64.8 11.4,68.8 11.3,68.9L11.6,69.1C14.2,66.4 39.6,41.2 54.7,28.4L55,28.1L66.5,18.8L75.6,11.5C75.6,11.4 75.5,10.4 75.5,10.4C75.5,10.4 75.2,7.6 75.1,7.3C74.8,7.6 47.1,32.4 47.1,32.4Z"
        style="fill:rgb(255,246,190);" />
    </g>
  </g>
  <g transform="matrix(2.89266,0,0,2.89266,-0.289266,54.7552)">
    <clipPath id="_clip32">
      <path
        d="M77.6,2.2L77.7,2.2L77.6,2.2M145.4,64.6C141.4,60.1 132.9,51 113.4,33C83.9,5.5 78.5,2.6 77.7,2.2C76.9,2.5 71.5,5.4 42.4,32.9C27.6,46.9 17.1,57.2 11,63.6C8.4,66.4 6.6,68.5 6.4,68.8C6.9,69.8 11.1,75.7 42.8,105.1C56.4,117.7 66.4,126.6 72.5,131.6C73.4,132.3 77.5,135.5 77.5,135.5L77.7,135.5C78.1,135.4 82.8,133.7 113.6,104.7C132.6,86.8 141.1,77.8 145.2,73.2L145.4,64.6M6.2,69.3C6.3,69.1 6.3,68.9 6.3,68.8L6.2,69.3" />
    </clipPath>
    <g clip-path="url(#_clip32)">
      <path
        d="M47.2,32.4C38.2,40.3 22.7,56.9 15.3,64.8L13.3,66.9C13.3,66.9 11.6,68.7 11.5,68.8L11.6,68.9C14.4,65.9 39.6,41 54.6,28.3L54.9,28L54.9,28.1C55,28 55.3,27.7 56.9,26.4L75.5,11.4C75.5,11.3 75.4,10.4 75.4,10.4C75.4,10.4 75.1,7.8 75.1,7.5C74.8,7.8 47.2,32.4 47.2,32.4Z"
        style="fill:rgb(255,247,194);" />
    </g>
  </g>
  <g transform="matrix(2.89266,0,0,2.89266,-0.289266,54.7552)">
    <clipPath id="_clip33">
      <path
        d="M77.6,2.2L77.7,2.2L77.6,2.2M145.4,64.6C141.4,60.1 132.9,51 113.4,33C83.9,5.5 78.5,2.6 77.7,2.2C76.9,2.5 71.5,5.4 42.4,32.9C27.6,46.9 17.1,57.2 11,63.6C8.4,66.4 6.6,68.5 6.4,68.8C6.9,69.8 11.1,75.7 42.8,105.1C56.4,117.7 66.4,126.6 72.5,131.6C73.4,132.3 77.5,135.5 77.5,135.5L77.7,135.5C78.1,135.4 82.8,133.7 113.6,104.7C132.6,86.8 141.1,77.8 145.2,73.2L145.4,64.6M6.2,69.3C6.3,69.1 6.3,68.9 6.3,68.8L6.2,69.3" />
    </clipPath>
    <g clip-path="url(#_clip33)">
      <path
        d="M47.3,32.5C38.3,40.4 22.8,57 15.4,64.9C15.4,65 15.3,65.1 15,65.4C15,65.4 14.3,66.1 13.9,66.6C21.1,59.4 41.6,39.3 54.6,28.3L54.9,28L54.9,28.1C55,28 55.2,27.8 56.9,26.4L75.5,11.4C75.5,11.3 75.4,10.5 75.4,10.5C75.4,10.5 75.1,8 75.1,7.8C74.7,8 47.3,32.5 47.3,32.5Z"
        style="fill:rgb(255,247,198);" />
    </g>
  </g>
  <g transform="matrix(2.89266,0,0,2.89266,-0.289266,54.7552)">
    <clipPath id="_clip34">
      <path
        d="M77.6,2.2L77.7,2.2L77.6,2.2M145.4,64.6C141.4,60.1 132.9,51 113.4,33C83.9,5.5 78.5,2.6 77.7,2.2C76.9,2.5 71.5,5.4 42.4,32.9C27.6,46.9 17.1,57.2 11,63.6C8.4,66.4 6.6,68.5 6.4,68.8C6.9,69.8 11.1,75.7 42.8,105.1C56.4,117.7 66.4,126.6 72.5,131.6C73.4,132.3 77.5,135.5 77.5,135.5L77.7,135.5C78.1,135.4 82.8,133.7 113.6,104.7C132.6,86.8 141.1,77.8 145.2,73.2L145.4,64.6M6.2,69.3C6.3,69.1 6.3,68.9 6.3,68.8L6.2,69.3" />
    </clipPath>
    <g clip-path="url(#_clip34)">
      <path
        d="M89.8,15.7L93.4,20.1L97.1,24.3L99.6,26.9C112.9,40.2 140.1,67.5 140.4,67.8L140.5,68C140.5,68.1 140.4,68.2 140.4,68.2C139.2,69.3 112.7,94.9 98.2,107.2L75.9,125.2L76.5,138.9L110.4,108.6C122.8,97.7 146.5,71.7 146.8,71.5C147.4,71 147.7,70.2 147.7,69.4C147.7,68.6 147.4,67.8 146.7,67.2L146.6,67.1C142.5,63.2 121.6,43.3 111,33.1C107.4,29.6 106.1,28.6 104.8,27.5L99,22.8L89.8,15.7"
        style="fill:rgb(255,229,0);" />
    </g>
  </g>
  <g transform="matrix(2.89266,0,0,2.89266,-0.289266,54.7552)">
    <clipPath id="_clip35">
      <path
        d="M145.1,72.9C143.2,74.9 139.8,78.7 135.6,83.1L137.9,80.8C141.2,77.4 143.5,74.9 145.1,73.1L145.1,72.9M91.1,17C91.9,17.9 93.5,19.9 93.5,19.9L93.4,19.9C93.5,20 93.8,20.3 97.2,24.2L99.7,26.8L134.8,62L140.5,67.7L140.7,68L140.6,68.4C137.7,71.2 112.5,95.4 98.4,107.4C98.4,107.4 76.6,125 76.2,125.4C76.2,125.5 76.5,130.9 76.7,134.8C76.8,134.9 76.9,134.9 76.9,135C76.7,131.3 76.4,125.6 76.4,125.5C76.8,125.2 98.5,107.6 98.5,107.6C113.4,95 140.5,68.7 140.8,68.5L140.9,68L140.7,67.6L135,61.9L100,26.6L97.5,24L97.3,23.8C94,20.1 93.8,19.8 93.7,19.8L93.8,19.9C93.8,19.9 93.1,19 92.5,18.4C94.3,19.8 98.9,23.2 98.9,23.2L104.8,28C106.1,29 107.4,30.1 110.9,33.5C120.3,42.5 137.4,58.9 145.4,66.5L145.4,66.2C137.3,58.5 120.3,42.3 111,33.3C107.5,29.9 106.1,28.8 104.9,27.8L99,22.9C99,22.9 92.2,17.8 91.1,17" />
    </clipPath>
    <g clip-path="url(#_clip35)">
      <rect x="76.2" y="17" width="69.2" height="117.9" style="fill:rgb(255,229,0);" />
    </g>
  </g>
  <g transform="matrix(2.89266,0,0,2.89266,-0.289266,54.7552)">
    <clipPath id="_clip36">
      <path
        d="M77.6,2.2L77.7,2.2L77.6,2.2M145.4,64.6C141.4,60.1 132.9,51 113.4,33C83.9,5.5 78.5,2.6 77.7,2.2C76.9,2.5 71.5,5.4 42.4,32.9C27.6,46.9 17.1,57.2 11,63.6C8.4,66.4 6.6,68.5 6.4,68.8C6.9,69.8 11.1,75.7 42.8,105.1C56.4,117.7 66.4,126.6 72.5,131.6C73.4,132.3 77.5,135.5 77.5,135.5L77.7,135.5C78.1,135.4 82.8,133.7 113.6,104.7C132.6,86.8 141.1,77.8 145.2,73.2L145.4,64.6M6.2,69.3C6.3,69.1 6.3,68.9 6.3,68.8L6.2,69.3" />
    </clipPath>
    <g clip-path="url(#_clip36)">
      <path
        d="M145.1,72.5C142.3,75.5 135.8,82.5 128.8,89.8C131.4,87.3 133.6,85 135.6,83C139.8,78.6 143.2,74.8 145.1,72.8L145.1,72.5M92.5,18.3C93,19 93.8,19.8 93.8,19.8L93.7,19.7C93.8,19.8 94,20 97.3,23.7L97.5,23.9L100,26.5L135.1,61.7L140.8,67.4L141,67.8L140.9,68.3C140.7,68.5 113.5,94.8 98.6,107.4C98.6,107.4 76.9,124.9 76.5,125.3C76.5,125.4 76.8,131.1 77,134.8C77.1,134.9 77.2,134.9 77.2,135C77,131.5 76.7,125.5 76.7,125.4C77.1,125.1 98.8,107.6 98.8,107.6C114.1,94.6 141,68.6 141.2,68.4C141.2,68.4 141.3,67.8 141.3,67.7L141.1,67.3L135.4,61.6L100.3,26.4L97.8,23.8L94.1,19.6L94,19.5C95,20.3 98.9,23.2 98.9,23.2L104.8,28C106.1,29 107.4,30.1 110.9,33.5C120.5,42.8 137.6,59.1 145.5,66.6L145.5,66.3C137.5,58.7 120.4,42.4 111,33.3C107.5,29.9 106.2,28.8 104.9,27.8L99,23C98.9,23.1 94.3,19.7 92.5,18.3"
        style="fill:rgb(254,229,0);" />
    </g>
  </g>
  <g transform="matrix(2.89266,0,0,2.89266,-0.289266,54.7552)">
    <clipPath id="_clip37">
      <path
        d="M77.6,2.2L77.7,2.2L77.6,2.2M145.4,64.6C141.4,60.1 132.9,51 113.4,33C83.9,5.5 78.5,2.6 77.7,2.2C76.9,2.5 71.5,5.4 42.4,32.9C27.6,46.9 17.1,57.2 11,63.6C8.4,66.4 6.6,68.5 6.4,68.8C6.9,69.8 11.1,75.7 42.8,105.1C56.4,117.7 66.4,126.6 72.5,131.6C73.4,132.3 77.5,135.5 77.5,135.5L77.7,135.5C78.1,135.4 82.8,133.7 113.6,104.7C132.6,86.8 141.1,77.8 145.2,73.2L145.4,64.6M6.2,69.3C6.3,69.1 6.3,68.9 6.3,68.8L6.2,69.3" />
    </clipPath>
    <g clip-path="url(#_clip37)">
      <path
        d="M103.2,114.2C99.3,117.7 94.3,122.1 89.8,126.2C93.2,123.2 97.6,119.3 103.2,114.2M145.1,72.2C141.7,75.8 132.4,85.9 123.4,95.1C125.3,93.2 127.1,91.5 128.8,89.9C135.8,82.6 142.3,75.6 145.1,72.6L145.1,72.2M93.8,19.6L93.9,19.7L97.6,23.9L100.1,26.5L135.2,61.7L140.9,67.4L141.1,67.8C141.1,67.9 141,68.5 141,68.5C140.9,68.7 114,94.7 98.6,107.7C98.6,107.7 76.9,125.2 76.5,125.5C76.5,125.6 76.8,131.6 77,135.1C77.1,135.2 77.2,135.2 77.2,135.3C77,132.1 76.7,125.7 76.7,125.6C77.1,125.3 98.7,107.8 98.7,107.8C114.4,94.5 141.1,68.6 141.1,68.5C141.1,68.5 141.2,67.8 141.2,67.7L140.9,67.2L135.2,61.5L100.1,26.3L97.6,23.7L95.2,21C95.8,21.4 98.4,23.4 98.4,23.4L99,23.9C103.7,27.7 104.3,28.2 104.4,28.2L104.3,28.2C105.6,29.2 106.9,30.3 110.4,33.7C120.2,43.1 137.4,59.5 145.2,67L145.2,66.7C137.3,59.2 120.1,42.8 110.6,33.6C107.1,30.2 105.8,29.1 104.5,28.1L98.6,23.3C98.7,23.3 94.8,20.3 93.8,19.6M111.1,106.8C110.7,107.2 110.2,107.6 109.8,107.9C109.8,107.9 94.2,121.9 84.7,130.3C86.1,129.2 87.7,127.8 89.7,126.1C94.2,122 99.2,117.6 103.1,114.1C105.6,111.9 108.2,109.5 111.1,106.8M145.1,71.9C141,76.3 127,91.4 116.2,102C118.8,99.5 121.2,97.2 123.4,95.1C132.4,85.9 141.7,75.9 145.1,72.2L145.1,71.9M95.4,21C96.3,22 97.8,23.7 97.8,23.7L100.3,26.3L135.4,61.5L141.1,67.2L141.4,67.7C141.4,67.9 141.3,68.5 141.3,68.5C141.2,68.6 114.5,94.5 98.9,107.8C98.9,107.8 77.3,125.2 76.9,125.6C76.9,125.7 77.3,132 77.4,135.3C77.5,135.3 77.5,135.4 77.5,135.4L77.7,135.4C77.5,132.5 77.1,125.9 77.1,125.8C77.5,125.4 99,108 99,108C115.1,94.4 141.5,68.6 141.5,68.5L141.6,67.6L141.6,67.5L141.3,67L135.6,61.3L100.5,26.1L98,23.6C98,23.6 97.5,23 97,22.5C97.7,23 98.5,23.6 98.5,23.6C98.5,23.6 104.1,28.1 104.4,28.4C105.7,29.4 107,30.5 110.5,33.9C120.3,43.4 137.7,59.9 145.4,67.3L145.4,67C137.6,59.6 120.4,43.2 110.6,33.7C107.1,30.3 105.8,29.2 104.5,28.2L104.6,28.2C104.5,28.2 103.9,27.7 99.2,23.9L98.6,23.4C98.6,23.4 95.9,21.4 95.4,21"
        style="fill:rgb(253,229,0);" />
    </g>
  </g>
  <g transform="matrix(2.89266,0,0,2.89266,-0.289266,54.7552)">
    <clipPath id="_clip38">
      <path
        d="M77.6,2.2L77.7,2.2L77.6,2.2M145.4,64.6C141.4,60.1 132.9,51 113.4,33C83.9,5.5 78.5,2.6 77.7,2.2C76.9,2.5 71.5,5.4 42.4,32.9C27.6,46.9 17.1,57.2 11,63.6C8.4,66.4 6.6,68.5 6.4,68.8C6.9,69.8 11.1,75.7 42.8,105.1C56.4,117.7 66.4,126.6 72.5,131.6C73.4,132.3 77.5,135.5 77.5,135.5L77.7,135.5C78.1,135.4 82.8,133.7 113.6,104.7C132.6,86.8 141.1,77.8 145.2,73.2L145.4,64.6M6.2,69.3C6.3,69.1 6.3,68.9 6.3,68.8L6.2,69.3" />
    </clipPath>
    <g clip-path="url(#_clip38)">
      <path
        d="M145.2,71.6C140.5,76.6 120.7,98.2 109.8,107.8C109.8,107.8 90.8,124.8 82.1,132.5C82.9,131.9 83.8,131.2 84.8,130.4C94.3,122 109.9,108 109.9,108C110.3,107.6 110.7,107.3 111.2,106.9L113.6,104.7C114.5,103.8 115.5,103 116.3,102.1C127.1,91.6 141.1,76.4 145.2,72L145.2,71.6M97,22.5C97.5,23 98,23.6 98,23.6L100.5,26.2L135.6,61.4L141.3,67.1L141.6,67.6L141.6,67.7L141.5,68.6C141.5,68.7 115.1,94.4 99,108.1C99,108.1 77.5,125.5 77.1,125.8C77.1,125.9 77.5,132.5 77.7,135.4C77.7,135.4 77.8,135.4 77.9,135.3C77.8,132.8 77.3,125.9 77.3,125.9C77.7,125.6 99.1,108.3 99.1,108.3C114.4,95.3 141.5,69 141.7,68.7L141.8,67.8L141.8,67.6L141.5,67.1L135.8,61.4L100.6,26C100.6,26 99.6,24.9 98.8,24.2C99.6,24.9 104.2,28.6 104.2,28.6C105.5,29.6 106.8,30.7 110.2,34.1C120.1,43.7 137.6,60.3 145.3,67.6L145.3,67.3C137.6,59.9 120.2,43.4 110.4,33.9C106.9,30.5 105.6,29.5 104.3,28.4C104,28.1 98.4,23.6 98.4,23.6C98.4,23.6 97.7,23 97,22.5"
        style="fill:rgb(252,229,0);" />
    </g>
  </g>
  <g transform="matrix(2.89266,0,0,2.89266,-0.289266,54.7552)">
    <clipPath id="_clip39">
      <path
        d="M77.6,2.2L77.7,2.2L77.6,2.2M145.4,64.6C141.4,60.1 132.9,51 113.4,33C83.9,5.5 78.5,2.6 77.7,2.2C76.9,2.5 71.5,5.4 42.4,32.9C27.6,46.9 17.1,57.2 11,63.6C8.4,66.4 6.6,68.5 6.4,68.8C6.9,69.8 11.1,75.7 42.8,105.1C56.4,117.7 66.4,126.6 72.5,131.6C73.4,132.3 77.5,135.5 77.5,135.5L77.7,135.5C78.1,135.4 82.8,133.7 113.6,104.7C132.6,86.8 141.1,77.8 145.2,73.2L145.4,64.6M6.2,69.3C6.3,69.1 6.3,68.9 6.3,68.8L6.2,69.3" />
    </clipPath>
    <g clip-path="url(#_clip39)">
      <path
        d="M145.2,71.3C140.8,76 120.6,98 109.6,107.6C109.6,107.6 87.3,127.5 80.3,133.8C80.8,133.4 81.4,133 82.1,132.5C90.7,124.8 109.8,107.8 109.8,107.8C120.8,98.2 140.5,76.6 145.2,71.6L145.2,71.3M98.8,24.2C99.5,25 100.6,26 100.6,26L135.7,61.2L141.4,66.9L141.7,67.4L141.7,67.6L141.6,68.5C141.5,68.8 114.3,95.1 99,108.1C99,108.1 77.6,125.4 77.2,125.7C77.2,125.8 77.6,132.6 77.8,135.1L78,135C77.9,133 77.4,125.9 77.4,125.8C77.8,125.5 99.2,108.2 99.2,108.2C114.6,95.1 141.7,68.8 141.8,68.5L141.9,67.5L141.9,67.4L141.8,67.2L141.4,66.6L135.7,60.9C115.9,41.1 104.5,29.6 101.4,26.6C102.5,27.5 103.9,28.6 103.9,28.6C105.1,29.6 106.4,30.7 109.9,34C120,43.7 137.6,60.5 145.1,67.6L145.1,67.3C137.5,60 119.9,43.3 110,33.8C106.5,30.4 105.2,29.4 104,28.3C104.2,28.6 99.6,24.8 98.8,24.2M145.2,70.9C141.1,75.2 120.6,97.6 109.4,107.4C109.4,107.4 83.4,130.6 78.9,134.6C79.2,134.4 79.7,134.1 80.2,133.7C87.3,127.4 109.5,107.5 109.5,107.5C120.5,97.8 140.7,75.8 145.1,71.2L145.2,70.9M101.6,26.7L141.6,66.7L142,67.3L142.1,67.5L142.1,67.6L142,68.6C141.9,68.9 114.8,95.3 99.4,108.3C99.4,108.3 78,125.5 77.6,125.9C77.6,126 78.1,133.1 78.2,135.1L78.4,135C78.3,133.7 77.8,126.1 77.8,126C78.2,125.7 99.5,108.5 99.5,108.5C115,95.4 142.1,68.9 142.2,68.6L142.3,67.6L142.3,67.5L142.2,67.3L141.8,66.7C141.8,66.7 107.6,32.4 104.8,29.6C105.9,30.5 107.3,31.7 110.1,34.4C120.1,44.1 137.9,61.1 145.4,68.2L145.4,67.9C137.9,60.7 120.3,44 110.2,34.3C106.7,30.9 105.4,29.9 104.2,28.9C104.1,28.7 102.7,27.6 101.6,26.7"
        style="fill:rgb(251,229,0);" />
    </g>
  </g>
  <g transform="matrix(2.89266,0,0,2.89266,-0.289266,54.7552)">
    <clipPath id="_clip40">
      <path
        d="M77.6,2.2L77.7,2.2L77.6,2.2M145.4,64.6C141.4,60.1 132.9,51 113.4,33C83.9,5.5 78.5,2.6 77.7,2.2C76.9,2.5 71.5,5.4 42.4,32.9C27.6,46.9 17.1,57.2 11,63.6C8.4,66.4 6.6,68.5 6.4,68.8C6.9,69.8 11.1,75.7 42.8,105.1C56.4,117.7 66.4,126.6 72.5,131.6C73.4,132.3 77.5,135.5 77.5,135.5L77.7,135.5C78.1,135.4 82.8,133.7 113.6,104.7C132.6,86.8 141.1,77.8 145.2,73.2L145.4,64.6M6.2,69.3C6.3,69.1 6.3,68.9 6.3,68.8L6.2,69.3" />
    </clipPath>
    <g clip-path="url(#_clip40)">
      <path
        d="M104.7,29.5C107.5,32.3 141.7,66.6 141.7,66.6L142.1,67.2L142.2,67.4L142.2,67.5L142.1,68.5C142,68.8 114.9,95.3 99.4,108.4C99.4,108.4 78.1,125.6 77.7,125.9C77.7,126 78.3,133.6 78.3,134.9C78.5,134.8 78.7,134.7 78.9,134.5C83.3,130.6 109.4,107.3 109.4,107.3C120.5,97.5 141.1,75 145.2,70.8L145.2,70.5C141.5,74.3 120.6,97.3 109.3,107.2C109.3,107.2 78.9,134.3 78.6,134.6C78.6,134.2 78,126.1 78,126C78.4,125.7 99.6,108.5 99.6,108.5C115.1,95.3 142.3,68.8 142.4,68.5L142.5,67.5L142.5,67.3L142.4,67L142,66.4C142,66.4 122.1,46.4 113.6,37.9C124.4,48.3 140.2,63.3 145.4,68.3L145.4,68C137.8,61 120,44 110,34.3C107.1,31.6 105.8,30.4 104.7,29.5"
        style="fill:rgb(250,229,0);" />
    </g>
  </g>
  <g transform="matrix(2.89266,0,0,2.89266,-0.289266,54.7552)">
    <clipPath id="_clip41">
      <path
        d="M77.6,2.2L77.7,2.2L77.6,2.2M145.4,64.6C141.4,60.1 132.9,51 113.4,33C83.9,5.5 78.5,2.6 77.7,2.2C76.9,2.5 71.5,5.4 42.4,32.9C27.6,46.9 17.1,57.2 11,63.6C8.4,66.4 6.6,68.5 6.4,68.8C6.9,69.8 11.1,75.7 42.8,105.1C56.4,117.7 66.4,126.6 72.5,131.6C73.4,132.3 77.5,135.5 77.5,135.5L77.7,135.5C78.1,135.4 82.8,133.7 113.6,104.7C132.6,86.8 141.1,77.8 145.2,73.2L145.4,64.6M6.2,69.3C6.3,69.1 6.3,68.9 6.3,68.8L6.2,69.3" />
    </clipPath>
    <g clip-path="url(#_clip41)">
      <path
        d="M113.4,38C121.9,46.5 141.8,66.5 141.8,66.5L142.2,67.1L142.3,67.4L142.3,67.6L142.2,68.6C142.1,68.9 115,95.4 99.4,108.6C99.4,108.6 78.2,125.7 77.8,126.1C77.8,126.2 78.4,134.3 78.4,134.7C78.8,134.4 109.1,107.3 109.1,107.3C120.4,97.4 141.4,74.4 145,70.6L145,70.3C141.9,73.5 120.4,97.1 108.9,107.1C108.9,107.1 78.9,133.9 78.5,134.2C78.5,133.8 77.9,126.2 77.9,126.1C78.3,125.8 99.4,108.7 99.4,108.7C115,95.4 142.2,68.8 142.3,68.5L142.4,67.4L142.2,66.8L141.8,66.2L141.7,66.1C141.7,66.1 132.1,56.5 125.7,50C131.8,55.8 143.6,67.1 145,68.5L145,68.2C140.1,63.4 124.3,48.4 113.4,38"
        style="fill:rgb(250,228,0);" />
    </g>
  </g>
  <g transform="matrix(2.89266,0,0,2.89266,-0.289266,54.7552)">
    <clipPath id="_clip42">
      <path
        d="M77.6,2.2L77.7,2.2L77.6,2.2M145.4,64.6C141.4,60.1 132.9,51 113.4,33C83.9,5.5 78.5,2.6 77.7,2.2C76.9,2.5 71.5,5.4 42.4,32.9C27.6,46.9 17.1,57.2 11,63.6C8.4,66.4 6.6,68.5 6.4,68.8C6.9,69.8 11.1,75.7 42.8,105.1C56.4,117.7 66.4,126.6 72.5,131.6C73.4,132.3 77.5,135.5 77.5,135.5L77.7,135.5C78.1,135.4 82.8,133.7 113.6,104.7C132.6,86.8 141.1,77.8 145.2,73.2L145.4,64.6M6.2,69.3C6.3,69.1 6.3,68.9 6.3,68.8L6.2,69.3" />
    </clipPath>
    <g clip-path="url(#_clip42)">
      <path
        d="M125.9,50.2C132.3,56.7 141.9,66.3 141.9,66.3L142,66.4L142.4,67L142.6,67.6L142.5,68.7C142.4,69 115.2,95.6 99.6,108.9C99.6,108.9 78.5,125.9 78.1,126.3C78.1,126.4 78.7,133.9 78.7,134.4C79.1,134.1 109.1,107.3 109.1,107.3C120.5,97.2 142,73.7 145.2,70.5L145.2,70.2C142.8,72.6 120.6,97 109,107.2C109,107.2 79.3,133.7 79,134C79,133.6 78.4,126.6 78.4,126.5C78.8,126.2 99.9,109.2 99.9,109.2C115.6,95.9 142.7,69.2 142.8,68.9L142.9,67.8L142.7,67.2C142.4,66.8 142.3,66.6 142.3,66.6L138.5,62.8C140.4,64.6 145.1,69.1 145.3,69.3L145.3,69C143.8,67.3 132,56.1 125.9,50.2"
        style="fill:rgb(250,226,0);" />
    </g>
  </g>
  <g transform="matrix(2.89266,0,0,2.89266,-0.289266,54.7552)">
    <clipPath id="_clip43">
      <path
        d="M77.6,2.2L77.7,2.2L77.6,2.2M145.4,64.6C141.4,60.1 132.9,51 113.4,33C83.9,5.5 78.5,2.6 77.7,2.2C76.9,2.5 71.5,5.4 42.4,32.9C27.6,46.9 17.1,57.2 11,63.6C8.4,66.4 6.6,68.5 6.4,68.8C6.9,69.8 11.1,75.7 42.8,105.1C56.4,117.7 66.4,126.6 72.5,131.6C73.4,132.3 77.5,135.5 77.5,135.5L77.7,135.5C78.1,135.4 82.8,133.7 113.6,104.7C132.6,86.8 141.1,77.8 145.2,73.2L145.4,64.6M6.2,69.3C6.3,69.1 6.3,68.9 6.3,68.8L6.2,69.3" />
    </clipPath>
    <g clip-path="url(#_clip43)">
      <path
        d="M138.4,62.4L142.2,66.2C142.3,66.3 142.4,66.4 142.6,66.8L142.8,67.4L142.7,68.5C142.6,68.8 115.4,95.5 99.8,108.8C99.8,108.8 78.7,125.8 78.3,126.1C78.3,126.2 78.9,133.2 78.9,133.6C79.3,133.3 108.9,106.8 108.9,106.8C120.5,96.6 142.7,72.2 145.1,69.8L145.1,69.4C145.1,69.5 145,69.5 144.9,69.6C142.5,72 120.2,96.4 108.7,106.6C108.7,106.6 79.4,132.8 79,133.1C79,132.7 78.4,126.3 78.4,126.2C79,126 100,109.1 100,109.1C115.7,95.8 142.9,69 143,68.6L143.1,67.4L143,67.1L142.9,67C143.6,67.6 145.1,69.1 145.1,69.1C145.2,69.2 145.2,69.2 145.2,69.3L145.2,69C145,68.7 140.3,64.3 138.4,62.4"
        style="fill:rgb(249,224,0);" />
    </g>
  </g>
  <g transform="matrix(2.89266,0,0,2.89266,-0.289266,54.7552)">
    <clipPath id="_clip44">
      <path
        d="M77.6,2.2L77.7,2.2L77.6,2.2M145.4,64.6C141.4,60.1 132.9,51 113.4,33C83.9,5.5 78.5,2.6 77.7,2.2C76.9,2.5 71.5,5.4 42.4,32.9C27.6,46.9 17.1,57.2 11,63.6C8.4,66.4 6.6,68.5 6.4,68.8C6.9,69.8 11.1,75.7 42.8,105.1C56.4,117.7 66.4,126.6 72.5,131.6C73.4,132.3 77.5,135.5 77.5,135.5L77.7,135.5C78.1,135.4 82.8,133.7 113.6,104.7C132.6,86.8 141.1,77.8 145.2,73.2L145.4,64.6M6.2,69.3C6.3,69.1 6.3,68.9 6.3,68.8L6.2,69.3" />
    </clipPath>
    <g clip-path="url(#_clip44)">
      <path
        d="M79.4,132.8C79.4,132.4 78.9,127.9 78.9,127.9L78.8,126.4C79.5,125.8 99.9,109.4 100.1,109.2C115.9,95.8 143.1,68.9 143.2,68.6C143.2,68.6 143.2,67.8 143.3,67.6C143.8,68.1 145,69.2 145,69.2L145.1,69.4L145,69.6L140.8,74C133.3,82 117.8,98.6 108.8,106.5C108.7,106.7 79.7,132.5 79.4,132.8M142.9,67L143,67.1L143.1,67.4L143,68.6C142.9,68.9 115.7,95.7 100,109.1C100,109.1 79,126 78.6,126.4C78.6,126.5 79.2,132.9 79.2,133.3C79.6,133 108.9,106.8 108.9,106.8C120.5,96.6 142.7,72.2 145.1,69.8L145.3,69.6L145.3,69.3L145.2,69.1C145.1,69.1 143.6,67.6 142.9,67"
        style="fill:rgb(249,222,0);" />
    </g>
  </g>
  <g transform="matrix(2.89266,0,0,2.89266,-0.289266,54.7552)">
    <clipPath id="_clip45">
      <path
        d="M77.6,2.2L77.7,2.2L77.6,2.2M145.4,64.6C141.4,60.1 132.9,51 113.4,33C83.9,5.5 78.5,2.6 77.7,2.2C76.9,2.5 71.5,5.4 42.4,32.9C27.6,46.9 17.1,57.2 11,63.6C8.4,66.4 6.6,68.5 6.4,68.8C6.9,69.8 11.1,75.7 42.8,105.1C56.4,117.7 66.4,126.6 72.5,131.6C73.4,132.3 77.5,135.5 77.5,135.5L77.7,135.5C78.1,135.4 82.8,133.7 113.6,104.7C132.6,86.8 141.1,77.8 145.2,73.2L145.4,64.6M6.2,69.3C6.3,69.1 6.3,68.9 6.3,68.8L6.2,69.3" />
    </clipPath>
    <g clip-path="url(#_clip45)">
      <path
        d="M79.6,132.4C79.6,131.5 79.1,128.1 79.1,128.1C79.1,128.1 79,126.7 79,126.6C79.4,126.2 100.2,109.5 100.2,109.5C116,96 143.3,69 143.4,68.7L143.4,68.1C144.3,69 144.7,69.3 144.8,69.4L144.7,69.4L144.8,69.5C140.8,73.8 140.6,74 140.6,74C133.1,82 117.6,98.6 108.6,106.5C108.6,106.5 79.9,132.1 79.6,132.4M143.2,67.6C143.2,67.8 143.1,68.6 143.1,68.6C143,68.9 115.8,95.8 100,109.2C99.8,109.4 79.4,125.8 78.7,126.4L78.8,127.9C78.8,127.9 79.3,132.4 79.3,132.8C79.6,132.5 108.6,106.6 108.6,106.6C117.6,98.7 133.1,82.1 140.6,74.1L144.8,69.7L144.9,69.5L144.8,69.3C144.9,69.2 143.7,68.1 143.2,67.6"
        style="fill:rgb(248,221,0);" />
    </g>
  </g>
  <g transform="matrix(2.89266,0,0,2.89266,-0.289266,54.7552)">
    <clipPath id="_clip46">
      <path
        d="M77.6,2.2L77.7,2.2L77.6,2.2M145.4,64.6C141.4,60.1 132.9,51 113.4,33C83.9,5.5 78.5,2.6 77.7,2.2C76.9,2.5 71.5,5.4 42.4,32.9C27.6,46.9 17.1,57.2 11,63.6C8.4,66.4 6.6,68.5 6.4,68.8C6.9,69.8 11.1,75.7 42.8,105.1C56.4,117.7 66.4,126.6 72.5,131.6C73.4,132.3 77.5,135.5 77.5,135.5L77.7,135.5C78.1,135.4 82.8,133.7 113.6,104.7C132.6,86.8 141.1,77.8 145.2,73.2L145.4,64.6M6.2,69.3C6.3,69.1 6.3,68.9 6.3,68.8L6.2,69.3" />
    </clipPath>
    <g clip-path="url(#_clip46)">
      <path
        d="M100.4,109.6C116.2,96.2 143.5,69.1 143.6,68.8L143.6,68.6L144.5,69.5C144.2,69.9 141,73.2 140.9,73.3L140.3,73.9C132.8,81.9 117.3,98.5 108.3,106.4C108.3,106.4 80,131.7 79.7,132C79.7,131.6 79.1,126.9 79.1,126.8L99.9,110L100.4,109.6M143.4,68.1L143.4,68.7C143.3,69 116,96 100.2,109.4C100.2,109.4 79.4,126.2 79,126.5C79,126.6 79.1,128 79.1,128C79.1,128 79.5,131.4 79.6,132.3C79.9,132 108.6,106.4 108.6,106.4C117.6,98.5 133.1,81.9 140.6,73.9C140.6,73.9 140.8,73.7 144.8,69.4L144.7,69.3L144.8,69.3C144.7,69.3 144.3,69 143.4,68.1"
        style="fill:rgb(248,219,0);" />
    </g>
  </g>
  <g transform="matrix(2.89266,0,0,2.89266,-0.289266,54.7552)">
    <clipPath id="_clip47">
      <path
        d="M77.6,2.2L77.7,2.2L77.6,2.2M145.4,64.6C141.4,60.1 132.9,51 113.4,33C83.9,5.5 78.5,2.6 77.7,2.2C76.9,2.5 71.5,5.4 42.4,32.9C27.6,46.9 17.1,57.2 11,63.6C8.4,66.4 6.6,68.5 6.4,68.8C6.9,69.8 11.1,75.7 42.8,105.1C56.4,117.7 66.4,126.6 72.5,131.6C73.4,132.3 77.5,135.5 77.5,135.5L77.7,135.5C78.1,135.4 82.8,133.7 113.6,104.7C132.6,86.8 141.1,77.8 145.2,73.2L145.4,64.6M6.2,69.3C6.3,69.1 6.3,68.9 6.3,68.8L6.2,69.3" />
    </clipPath>
    <g clip-path="url(#_clip47)">
      <path
        d="M143.6,68.6L143.6,68.8C143.5,69.1 116.2,96.2 100.4,109.6C100.4,109.7 100.3,109.7 100.1,109.9L79.3,126.7C79.3,126.8 79.9,131.5 79.9,131.9C80.2,131.6 108.5,106.3 108.5,106.3C117.5,98.4 133,81.8 140.5,73.8L141.1,73.2C141.1,73.2 144.3,69.8 144.7,69.4C144.4,69.3 143.9,68.8 143.6,68.6"
        style="fill:rgb(248,217,0);" />
    </g>
  </g>
  <g transform="matrix(2.89266,0,0,2.89266,-0.289266,54.7552)">
    <path
      d="M135.4,86.1L135.2,86.3L134.7,85.8C134.6,85.9 126.7,93.7 117,102.8C107.3,111.9 81.1,134.8 79.3,135.9C77.7,136.9 76.6,136.4 75.9,135.9C75.2,135.4 73.7,134.2 70.4,131.5L69.1,130.4C66.1,128 61.5,123.7 57.4,119.9C55.6,118.2 53.8,116.6 52.4,115.4C47.9,111.4 38.2,102.3 33.2,97.6C28.3,93 17.9,82.9 17.7,82.8L17,83.6C17.1,83.7 27.6,93.8 32.5,98.4C33.9,99.7 46.2,111.2 51.7,116.2C53.1,117.5 54.8,119 56.7,120.7C60.8,124.5 65.5,128.8 68.5,131.2L69.8,132.3C73.2,135.1 74.6,136.3 75.4,136.8C76.1,137.3 76.9,137.5 77.6,137.5L78.5,137.4C78.9,137.6 79.9,138.3 80.4,138.6C81,139 81.9,139.6 83.9,138.5C85.9,137.3 89.7,134.5 96.1,128.8C102.5,123.1 111.3,115.1 115.5,111.1C119.7,107.1 128.9,98.5 133,94.5C137,90.6 141.1,86.5 141.1,86.5L135.4,86.1ZM44.2,30.1C46.6,27.8 54.9,19.9 63,12.6C69.6,6.7 74.4,2.8 75.5,2C76.7,1.2 77.6,0.9 78.8,1.6C78.8,1.6 81.3,3.2 85.2,6.5C86.2,7.4 87.3,8.3 88.4,9.1C91.4,11.6 94.5,14.2 97.2,16.8C99.2,18.7 102.5,21.7 105.7,24.6C108.4,27.1 111,29.4 112.7,31C116.3,34.4 122.9,40.4 123,40.5L123.8,39.6C123.8,39.6 123.3,39.2 122.6,38.5L124,38.5L123.6,38C123.6,38 110.1,25.4 103.4,19.4C96.7,13.4 90.7,8.1 87.6,5.7C84.5,3.3 83.8,2.8 83,2.6L82,2.4C80.4,1.2 79.5,0.6 79.4,0.6C77.3,-0.7 75.5,0.5 74.7,1C73.6,1.8 68.7,5.7 62,11.6C54,18.9 45.7,26.9 43.3,29.2C38.7,33.6 28.8,42.8 28.7,42.9L29.5,43.8C29.7,43.6 39.5,34.5 44.2,30.1ZM61.5,76.7C66.9,72.2 68.3,68.8 68,64.8C67.7,61.4 66.3,59.1 64.3,57.5C61.8,51.3 54.6,50 49.5,49.4C44.7,48.9 37,49.2 31.8,49.4L31,49.4L31,42.9L28.1,42.9L28.1,39.2L27.8,38.3C27.8,38.3 14.1,38.3 1.1,38.8L0.1,38.8L0.1,88.4L5.1,88.4L5.1,90.9L18,90.9L18,73.6L29.9,73.6L29.9,63.4L27,63.4L27,58.5L17.8,58.5L17.8,53.4L30.7,53.4L30.7,95.2L35.7,95.2L35.7,97.7L48.1,97.7L48.1,80.2L58.1,96.8L59,96L60.1,95.1L62,98.2C65.6,95.3 72.2,89 72.2,89C71,87.6 69.8,86.2 68.6,84.9L61.5,76.7ZM48.1,69.2L48.1,62.1L50,62.1C50.3,62.6 50.4,63.2 50.4,63.9C50.5,65.8 49.5,67.6 48.1,69.2ZM173.8,70.3L177.1,48.7L174.2,48.5L174.6,45.7L161.9,44.7L160.5,69L164.7,69.2L157.8,74.8L156.5,74.8L156.5,71.2L155.1,71.3C151.2,71.6 148,71.6 145.2,71.6L160.4,43.3C158.9,43.2 157.4,43.1 155.9,43.1L158.2,38.8L156.3,38.7C139.5,37.8 127.1,38 122.9,38L122.4,38L122.4,48.7L86.5,48.7L86.5,44.8L83.6,44.8L83.6,40.1L72.3,40.1L74,46.8L68.8,48.1L68.9,84.9L74,84.9L74,87.3L86.5,87.3L86.5,61.9C87.2,61.9 88.1,61.9 89.1,61.8L89.1,64.1L96.1,64.1L96.1,95.3L101.2,95.3L101.2,97.7L114,97.7L114,64.1L126.1,64.1L126.1,53.7C129.9,53.5 132.9,53.4 135.3,53.4L119.2,84.5L126.3,84.5L125,87L159.5,87L159.5,76.9L164.6,83.2L167,81.3L168.8,83.5L175.4,78.2L169,70.3L173.8,70.3Z"
      style="fill:rgb(2,13,0);" />
  </g>
  <g transform="matrix(2.89266,0,0,2.89266,-0.289266,54.7552)">
    <path
      d="M82.5,41.2L82.5,83.8L70,83.8L70,48.9L75.4,47.6L73.7,41.2L82.5,41.2ZM31.8,50.4C37,50.2 44.6,49.8 49.4,50.4C55.5,51.1 63.4,52.7 64.1,61.3C64.4,65.3 63,68.8 57.3,73.4L68.4,86.4C65.4,89.5 62,92.4 58.5,95.3L45.3,73.3C48.2,71 51.6,67.8 51.6,64C51.6,60.3 48.1,58.6 46.9,58.6L44.2,58.6L44.2,94.4L31.8,94.4L31.8,50.4ZM97.2,94.2L97.2,60.5L85.1,60.8L85.1,49.7L122.1,49.7L122.1,60.8L110,60.5L110,94.2L97.2,94.2ZM123.3,50L123.3,39C127.5,39 139.7,38.8 156.4,39.7L138.7,72.6C142.5,72.7 147.9,72.8 155.3,72.3L155.3,83.3L120.8,83.3L138.2,49.6C134.3,49.8 129.6,49.7 123.3,50Z"
      style="fill:rgb(227,6,19);" />
  </g>
  <g transform="matrix(2.89266,0,0,2.89266,-0.289266,54.7552)">
    <path d="M27,39.4L27,50L13.9,50L13.9,60L25.9,59.9L25.9,70.1L14,70.1L14,87.4L1.1,87.4L1.1,39.9L27,39.4Z"
      style="fill:rgb(227,6,19);" />
  </g>
  <g transform="matrix(2.89266,0,0,2.89266,-0.289266,54.7552)">
    <path d="M161.6,68L170,68.3L173.4,46.7L163,45.8L161.6,68Z" style="fill:rgb(227,6,19);" />
  </g>
  <g transform="matrix(2.89266,0,0,2.89266,-0.289266,54.7552)">
    <path d="M159.193,75.034L165.72,69.746L171.008,76.273L164.481,81.561L159.193,75.034Z" style="fill:rgb(227,6,19);" />
  </g>
</svg>