<?xml version="1.0" encoding="utf-8"?>
<svg xmlns="http://www.w3.org/2000/svg" viewBox="0 0 512 512">
  <g transform="matrix(0.2048,0,0,0.2048,72.9088,0)">
    <path
      d="M596.547,549.625L558.422,549.625L558.422,747.125L596.547,747.125L596.547,549.625ZM760.516,549.625L722.391,549.625L722.391,747.125L760.516,747.125L760.516,549.625ZM984.547,172.719L945.484,104.969L293.391,481.875L332.453,549.625L984.547,172.719Z"
      style="fill:rgb(19,190,249);" />
    <path d="M980.734,172.719L1019.83,104.969L1671.92,481.875L1632.83,549.625L980.734,172.719Z"
      style="fill:rgb(19,190,249);" />
    <rect x="0.703" y="472.344" width="1786.59" height="78.219" style="fill:rgb(19,190,249);" />
    <path
      d="M1079.89,1655.53L1079.89,496.187L1158.08,496.187L1158.08,1711.84C1137.11,1687.97 1110.39,1670.81 1079.89,1655.53ZM946.422,1635.5L946.422,0L1024.61,0L1024.61,1645.03C1002.67,1634.53 949.297,1635.5 946.422,1635.5ZM205.672,1798.66C110.328,1728.06 47.422,1615.47 47.422,1487.59C47.422,1419.84 65.516,1353.06 98.891,1294.84L766.234,1294.84C800.547,1353.06 817.734,1419.84 817.734,1487.59C817.734,1546.75 810.109,1602.09 786.266,1651.72C735.734,1603.06 661.359,1582.06 586.047,1582.06C452.578,1582.06 338.172,1665.06 308.641,1789.12C298.141,1788.16 291.484,1787.22 280.984,1787.22C255.234,1788.16 230.453,1792 205.672,1798.66Z"
      style="fill:rgb(19,190,249);" />
    <path
      d="M533.609,834.938L331.516,834.938L331.516,1038.16L533.609,1038.16L533.609,834.938ZM305.766,834.938L103.672,834.938L103.672,1038.16L305.766,1038.16L305.766,834.938ZM305.766,1061.06L103.672,1061.06L103.672,1264.31L305.766,1264.31L305.766,1061.06ZM533.609,1061.06L331.516,1061.06L331.516,1264.31L533.609,1264.31L533.609,1061.06ZM760.516,1061.06L558.422,1061.06L558.422,1264.31L760.516,1264.31L760.516,1061.06ZM760.516,726.156L558.422,726.156L558.422,929.375L760.516,929.375L760.516,726.156Z"
      style="fill:rgb(19,190,249);" />
    <path
      d="M341.984,1829.19C369.641,1711.84 475.453,1624.03 601.297,1624.03C682.359,1624.03 754.797,1660.31 804.391,1717.56C847.266,1687.97 898.766,1670.81 955.016,1670.81C1101.83,1670.81 1220.98,1790.06 1220.98,1937.03C1220.98,1967.56 1216.23,1996.19 1206.7,2023.84C1239.11,2067.75 1259.14,2123.09 1259.14,2182.25C1259.14,2329.19 1139.95,2448.47 993.141,2448.47C928.297,2448.47 869.203,2425.56 823.453,2387.41C774.828,2455.16 695.703,2500 606.078,2500C503.109,2500 413.484,2440.84 368.703,2354.97C350.578,2358.78 332.453,2360.69 313.391,2360.69C166.578,2360.69 46.453,2241.41 46.453,2094.47C46.453,1947.53 165.641,1828.25 313.391,1828.25C322.922,1827.28 332.453,1827.28 341.984,1829.19Z"
      style="fill:rgb(19,190,249);" />
  </g>
</svg>