<?xml version="1.0" encoding="utf-8"?>
<svg xmlns="http://www.w3.org/2000/svg" viewBox="0 0 512 512">
  <g transform="matrix(1.09156,0,0,1.09156,-23.3358,-19.5481)">
    <path
      d="M23.71,85.08C17.22,49.81 49.44,14.86 85.08,18.12C118.83,19.21 145.72,53.33 139.45,86.37C155.64,102.3 171.32,118.83 187.87,134.36C198.32,111.73 208.84,89.12 219.57,66.62C226.05,53.84 243.47,48.74 255.73,56.27C263.76,62.1 270.34,69.69 277.25,76.75C286.28,86.61 285.72,102.89 276.31,112.31C223.38,165.37 170.38,218.37 117.35,271.34C107.72,280.99 91.01,281.25 81.11,271.86C74.39,264.94 66.82,258.69 61.24,250.77C53.72,238.52 58.85,221.07 71.64,214.62C94.11,203.87 116.72,193.38 139.33,182.91C123.81,166.36 107.3,150.68 91.37,134.49C60.2,140.28 27.37,116.78 23.71,85.08Z"
      style="fill:rgb(69,149,227);" />
  </g>
  <g transform="matrix(1.09156,0,0,1.09156,-23.3358,-19.5481)">
    <path
      d="M205.21,201.23C225.32,181.36 260.88,181.11 281.14,200.86C299.25,218.75 317.37,236.65 335.1,254.93C356.73,278.01 352.01,318.7 326.03,336.56C320.07,330.47 313.73,324.65 308.12,318.28C323.86,309.39 328.76,286.18 316.63,272.39C301.73,256.95 286.3,242.03 271.24,226.75C264.49,219.65 256.8,212 246.37,211.52C224.65,208.64 205.52,233.36 214.49,253.58C221.09,266.81 234.22,275.12 243.62,286.24C240.43,295.96 238.09,306.13 238.29,316.46C225.55,304.29 213.16,291.73 200.89,279.09C180.97,257.57 183.1,220.45 205.21,201.23Z"
      style="fill:rgb(69,149,227);" />
  </g>
  <g transform="matrix(1.09156,0,0,1.09156,-23.3358,-19.5481)">
    <path
      d="M273.9,352.07C252.28,328.99 256.98,288.31 282.96,270.46C288.93,276.54 295.26,282.36 300.88,288.72C285.14,297.62 280.23,320.82 292.38,334.61C307.27,350.05 322.7,364.96 337.75,380.25C344.51,387.35 352.2,395 362.64,395.48C384.35,398.37 403.49,373.64 394.51,353.42C387.92,340.18 374.78,331.88 365.38,320.76C368.56,311.04 370.91,300.86 370.71,290.54C383.45,302.7 395.84,315.27 408.11,327.91C428.03,349.43 425.9,386.55 403.78,405.77C383.68,425.64 348.13,425.89 327.86,406.14C309.75,388.25 291.6,370.37 273.9,352.07Z"
      style="fill:rgb(69,149,227);" />
  </g>
  <g transform="matrix(1.09156,0,0,1.09156,-23.3358,-19.5481)">
    <path
      d="M422.11,403.83C431.96,394.07 441.6,384.06 451.66,374.51C460.9,383.74 471.89,392.7 474.89,406.11C480.16,429.97 484.08,454.13 488.76,478.12C490,483.41 484.47,488.29 479.35,486.63C454.66,481.52 429.55,478.12 405.14,471.84C393.17,467.97 385.2,457.75 376.55,449.27C386.39,439.49 396.13,429.6 406.06,419.91C416.37,433.45 435.74,414 422.11,403.83Z"
      style="fill:rgb(69,149,227);" />
  </g>
</svg>