<?xml version="1.0" encoding="utf-8"?>
<svg xmlns="http://www.w3.org/2000/svg" viewBox="0 0 512 512">
  <g transform="matrix(11.8549,0,0,11.8549,0,5.68434e-14)">
    <clipPath id="_clip1">
      <path
        d="M10.328,0C4.106,0 0,4.022 0,10.327L0,32.861C0,39.166 4.106,43.189 10.328,43.189L32.862,43.189C39.084,43.189 43.189,39.166 43.189,32.861L43.189,10.327C43.189,4.022 39.084,-0 32.862,-0L10.328,0Z" />
    </clipPath>
    <g clip-path="url(#_clip1)">
      <rect x="-3.374" y="-3.375" width="49.938" height="49.938" style="fill:rgb(255,255,255);" />
    </g>
  </g>
  <g transform="matrix(11.8549,0,0,11.8549,0,5.68434e-14)">
    <clipPath id="_clip2">
      <path
        d="M20.842,23.887C20.842,22.8 21.75,21.916 22.867,21.916C23.984,21.916 24.895,22.8 24.895,23.887C24.895,24.974 23.984,25.858 22.867,25.858C21.75,25.858 20.842,24.974 20.842,23.887M19.7,23.887C19.7,25.586 21.121,26.967 22.867,26.967C23.606,26.967 24.323,26.713 24.895,26.249L24.895,26.721L26.034,26.721L26.034,23.887C26.034,22.188 24.613,20.807 22.867,20.807C21.121,20.807 19.7,22.188 19.7,23.887" />
    </clipPath>
    <g clip-path="url(#_clip2)">
      <rect x="16.326" y="17.433" width="13.082" height="12.909" style="fill:rgb(73,81,95);" />
    </g>
  </g>
  <g transform="matrix(11.8549,0,0,11.8549,0,5.68434e-14)">
    <clipPath id="_clip3">
      <path
        d="M28.117,23.887C28.117,22.8 29.027,21.916 30.143,21.916C31.26,21.916 32.169,22.8 32.169,23.887C32.169,24.974 31.26,25.858 30.143,25.858C29.027,25.858 28.117,24.974 28.117,23.887M32.169,18.851L32.169,21.526C31.596,21.061 30.881,20.807 30.143,20.807C28.397,20.807 26.977,22.188 26.977,23.887C26.977,25.586 28.397,26.967 30.143,26.967C30.913,26.967 31.621,26.698 32.169,26.251L32.169,26.721L33.31,26.721L33.31,18.851L32.169,18.851Z" />
    </clipPath>
    <g clip-path="url(#_clip3)">
      <rect x="23.603" y="15.476" width="13.082" height="14.865" style="fill:rgb(73,81,95);" />
    </g>
  </g>
  <g transform="matrix(11.8549,0,0,11.8549,0,5.68434e-14)">
    <clipPath id="_clip4">
      <path
        d="M35.367,23.887C35.367,22.8 36.277,21.916 37.393,21.916C38.511,21.916 39.42,22.8 39.42,23.887C39.42,24.974 38.511,25.858 37.393,25.858C36.277,25.858 35.367,24.974 35.367,23.887M34.228,23.887C34.228,25.586 35.647,26.967 37.393,26.967C38.133,26.967 38.849,26.713 39.42,26.249L39.42,26.721L40.56,26.721L40.56,23.887C40.56,22.188 39.14,20.807 37.393,20.807C35.647,20.807 34.228,22.188 34.228,23.887" />
    </clipPath>
    <g clip-path="url(#_clip4)">
      <rect x="30.854" y="17.433" width="13.081" height="12.909" style="fill:rgb(73,81,95);" />
    </g>
  </g>
  <g transform="matrix(11.8549,0,0,11.8549,0,5.68434e-14)">
    <clipPath id="_clip5">
      <path
        d="M14.248,21.724C13.759,21.141 13.035,20.805 12.274,20.808C10.873,20.808 9.733,21.916 9.733,23.28L9.733,26.722L10.873,26.722L10.873,23.28C10.873,22.528 11.502,21.916 12.274,21.916C13.048,21.916 13.678,22.528 13.678,23.28L13.678,26.722L14.818,26.722L14.818,23.28C14.818,22.528 15.447,21.916 16.22,21.916C16.994,21.916 17.623,22.528 17.623,23.28L17.623,26.722L18.763,26.722L18.763,23.28C18.763,21.916 17.622,20.808 16.22,20.808C15.451,20.808 14.735,21.142 14.248,21.724" />
    </clipPath>
    <g clip-path="url(#_clip5)">
      <rect x="6.358" y="17.433" width="15.779" height="12.663" style="fill:rgb(73,81,95);" />
    </g>
  </g>
  <g transform="matrix(11.8549,0,0,11.8549,0,5.68434e-14)">
    <clipPath id="_clip6">
      <path
        d="M3.649,23.923C3.649,22.784 4.585,21.859 5.736,21.859C6.886,21.859 7.822,22.784 7.822,23.923C7.822,25.059 6.886,25.985 5.736,25.985C4.585,25.985 3.649,25.059 3.649,23.923M2.655,23.923C2.655,25.601 4.037,26.967 5.736,26.967C7.434,26.967 8.816,25.601 8.816,23.923C8.816,22.243 7.434,20.877 5.736,20.877C4.037,20.877 2.655,22.243 2.655,23.923" />
    </clipPath>
    <g clip-path="url(#_clip6)">
      <rect x="-0.719" y="17.503" width="12.908" height="12.838" style="fill:rgb(73,81,95);" />
    </g>
  </g>
  <g transform="matrix(11.8549,0,0,11.8549,0,5.68434e-14)">
    <clipPath id="_clip7">
      <path
        d="M16.702,16.882L17.747,17.921C18.874,16.396 20.778,15.418 22.715,15.418C24.655,15.418 26.561,16.396 27.689,17.921L28.731,16.884C27.325,14.982 25.124,13.945 22.715,13.945C20.308,13.945 18.109,14.98 16.702,16.882" />
    </clipPath>
    <g clip-path="url(#_clip7)">
      <rect x="13.328" y="10.571" width="18.776" height="10.725" style="fill:rgb(33,182,196);" />
    </g>
  </g>
  <g transform="matrix(11.8549,0,0,11.8549,0,5.68434e-14)">
    <clipPath id="_clip8">
      <path
        d="M18.765,19.161L19.823,20.214C20.555,19.332 21.614,18.795 22.706,18.795C23.8,18.795 24.855,19.354 25.589,20.239L26.659,19.172C25.644,17.948 24.243,17.32 22.706,17.32C21.171,17.32 19.778,17.938 18.765,19.161" />
    </clipPath>
    <g clip-path="url(#_clip8)">
      <rect x="15.39" y="13.947" width="14.644" height="9.666" style="fill:rgb(33,182,196);" />
    </g>
  </g>
</svg>