<?xml version="1.0" encoding="utf-8"?>
<svg xmlns="http://www.w3.org/2000/svg" viewBox="0 0 512 512">
  <g transform="matrix(16,0,0,16,102.395,0)">
    <path
      d="M0,13.615L0,27.498C0,27.498 2.279,25.949 4.741,24.235L4.741,16.932C4.741,13.18 5.882,11.97 8.97,9.696C9.94,8.981 11.429,7.886 12.902,6.803L12.902,0C12.902,0 6.776,4.503 4.228,6.379C1.14,8.652 0,9.863 0,13.615ZM6.289,32L6.289,18.117C6.289,14.365 7.429,13.155 10.517,10.881C13.065,9.005 19.19,4.502 19.19,4.502L19.19,16.616C19.19,16.964 19.193,17.296 19.196,17.613C19.224,20.968 19.24,22.758 15.775,25.353C12.913,27.497 6.289,32 6.289,32Z" />
  </g>
</svg>