<?xml version="1.0" encoding="utf-8"?>
<svg xmlns="http://www.w3.org/2000/svg" viewBox="0 0 512 512">
  <g id="polygon2989" transform="matrix(1.25,0,0,1.25,-5.55168e-06,2.84217e-14)">
    <path d="M349.894,80.496L323.457,376.655L204.622,409.6L86.115,376.702L59.706,80.496L349.894,80.496Z"
      style="fill:rgb(38,77,228);" />
  </g>
  <g id="polygon2991" transform="matrix(1.25,0,0,1.25,-5.55168e-06,2.84217e-14)">
    <path d="M300.824,357.797L323.416,104.715L204.8,104.715L204.8,384.418L300.824,357.797Z"
      style="fill:rgb(41,101,241);" />
  </g>
  <g id="polygon2993" transform="matrix(1.25,0,0,1.25,-5.55168e-06,2.84217e-14)">
    <path d="M120.248,214.574L123.504,250.902L204.8,250.902L204.8,214.574L120.248,214.574Z"
      style="fill:rgb(235,235,235);" />
  </g>
  <g id="polygon2995" transform="matrix(1.25,0,0,1.25,-5.55168e-06,2.84217e-14)">
    <path d="M204.8,141.044L113.706,141.044L117.008,177.373L204.8,177.373L204.8,141.044Z"
      style="fill:rgb(235,235,235);" />
  </g>
  <g id="polygon2997" transform="matrix(1.25,0,0,1.25,-5.55168e-06,2.84217e-14)">
    <path
      d="M204.8,346.719L204.8,308.922L204.641,308.965L164.182,298.04L161.595,269.066L125.127,269.066L130.217,326.107L204.633,346.766L204.8,346.719Z"
      style="fill:rgb(235,235,235);" />
  </g>
  <g id="path2999" transform="matrix(1.25,0,0,1.25,-5.55168e-06,2.84217e-14)">
    <path d="M128,-0L172,-0L172,18.4L146.4,18.4L146.4,36.8L172,36.8L172,55.2L128,55.2L128,-0Z" />
  </g>
  <g id="path3001" transform="matrix(1.25,0,0,1.25,-5.55168e-06,2.84217e-14)">
    <path
      d="M180.8,-0L224.8,-0L224.8,16L199.2,16L199.2,19.2L224.8,19.2L224.8,56L180.8,56L180.8,39.2L206.4,39.2L206.4,36L180.8,36L180.8,-0Z" />
  </g>
  <g id="path3003" transform="matrix(1.25,0,0,1.25,-5.55168e-06,2.84217e-14)">
    <path
      d="M233.6,-0L277.6,-0L277.6,16L252,16L252,19.2L277.6,19.2L277.6,56L233.6,56L233.6,39.2L259.2,39.2L259.2,36L233.6,36L233.6,-0Z" />
  </g>
  <g id="polygon3005" transform="matrix(1.25,0,0,1.25,-5.55168e-06,2.84217e-14)">
    <path
      d="M249.409,250.902L245.192,298.017L204.674,308.953L204.674,346.748L279.15,326.107L279.696,319.97L288.233,224.329L289.119,214.574L295.678,141.044L204.674,141.044L204.674,177.373L255.865,177.373L252.559,214.574L204.674,214.574L204.674,250.902L249.409,250.902Z"
      style="fill:rgb(255,255,255);" />
  </g>
</svg>