<?xml version="1.0" encoding="utf-8"?>
<svg xmlns="http://www.w3.org/2000/svg" viewBox="0 0 512 512" style="fill-rule:evenodd;">
  <defs>
    <linearGradient id="_Linear1" x1="0" y1="0" x2="1" y2="0" gradientUnits="userSpaceOnUse"
      gradientTransform="matrix(2.79874e-14,457.069,-457.069,2.79874e-14,229.145,0)">
      <stop offset="0" style="stop-color:rgb(32,110,255);stop-opacity:1" />
      <stop offset="1" style="stop-color:rgb(195,35,255);stop-opacity:1" />
    </linearGradient>
  </defs>
  <g transform="matrix(1.1179,0,0,1.1179,0,0.542173)">
    <path
      d="M228.515,7C350.772,7 450.03,106.258 450.03,228.515C450.03,350.772 350.772,450.03 228.515,450.03C106.258,450.03 7,350.772 7,228.515C7,106.258 106.258,7 228.515,7ZM229.117,162.453C265.982,162.453 295.912,192.383 295.912,229.248C295.912,266.113 265.982,296.043 229.117,296.043C192.252,296.043 162.322,266.113 162.322,229.248C162.322,192.383 192.252,162.453 229.117,162.453Z"
      style="fill:rgb(255,255,255);" />
  </g>
  <g transform="matrix(1.1179,0,0,1.1179,0,0.542173)">
    <path
      d="M210.443,0.454C179.541,3.134 152.72,10.738 125.518,24.527C81.141,47.023 47.151,81.011 24.678,125.364C7.769,158.736 0.265,190.4 0.29,228.272C0.308,256.035 3.305,275.017 11.731,300.708C27.714,349.446 60.75,392.051 105.059,421.068C125.767,434.63 157.302,447.405 182.728,452.535C218.294,459.709 257.725,458.247 291.635,448.497C374.046,424.801 436.046,357.319 453.12,272.733C456.097,257.982 458.541,232.167 457.896,222.277C454.5,170.251 438.975,127.109 409.904,88.922C401.691,78.132 383.935,59.947 372.857,50.98C339.879,24.285 299.81,7.136 257.401,1.566C246.293,0.107 221.27,-0.486 210.443,0.454M211.144,18.481C161.422,22.92 115.517,44.425 80.048,79.893C47.4,112.542 27.227,152.558 20.049,198.913C18.007,212.097 17.714,241.908 19.505,254.249C23.433,281.329 31.006,305.139 42.611,326.894C47.296,335.679 56.425,350.164 57.275,350.164C58.541,350.164 63.379,347.021 65.203,345.013C66.375,343.724 69.856,338.561 72.939,333.538C76.022,328.517 80.212,322.944 82.248,321.156C95.835,309.227 118.283,310.334 130.196,323.52C135.084,328.931 138.545,337.029 143.421,354.466C148.798,373.691 151.754,381.463 156.112,387.835C162.39,397.013 170.609,399.155 180.393,394.164C185.394,391.612 188.509,387.297 195.608,373.082C206.032,352.211 216.327,343.947 231.901,343.947C245.08,343.947 252.432,348.775 263.368,364.61C271.803,376.825 275.151,379.382 282.855,379.494C287.061,379.555 289.133,378.958 293.002,376.577C299.236,372.742 303.175,366.807 308.383,353.412C316.981,331.295 323.592,322.149 335.025,316.556C339.854,314.193 342.061,313.728 348.314,313.759C363.977,313.834 373.352,321.68 380.814,340.958C384.532,350.56 389.225,355.159 395.307,355.159C397.937,355.159 409.701,337.126 417.792,320.69C433.27,289.251 440.131,256.921 438.887,221.278C437.775,189.407 431.128,162.991 417.273,135.383C406.593,114.101 396.372,99.686 379.828,82.577C347.122,48.752 307.606,28.049 261.314,20.486C247.331,18.202 224.495,17.289 211.144,18.481M161.637,49.277C160.181,50.841 156.347,55.975 153.118,60.687C147.851,68.371 147.315,69.617 147.909,72.787C149.078,79.017 155.685,82.171 161.17,79.12C162.369,78.452 166.405,73.636 170.139,68.416C175.711,60.626 176.928,58.235 176.928,55.071C176.928,47.112 167.117,43.395 161.637,49.277M310.447,64.434C298.235,68.957 295.912,70.857 295.912,76.332C295.912,81.034 298.368,84.122 302.763,84.948C305.645,85.488 321.262,80.744 327.978,77.287C332.936,74.736 333.671,67.599 329.414,63.342C325.609,59.537 323.309,59.67 310.447,64.434M222.76,106.774C220.53,108.692 219.979,110.006 219.979,113.412C219.979,117.251 220.459,118.083 224.953,122.06C235.847,131.701 240.201,134.555 244.012,134.555C251.37,134.555 255.585,125.569 250.754,120.179C248.237,117.371 235.432,106.963 232.739,105.537C229.326,103.731 225.789,104.168 222.76,106.774M129.935,133.752C128.118,134.557 126.317,136.425 125.533,138.317C124.315,141.256 124.527,142.48 128.091,153.174C130.252,159.656 132.962,165.827 134.197,167.077C138.545,171.478 147.392,168.872 148.932,162.737C149.788,159.324 143.086,138.685 140.14,135.665C137.31,132.764 133.698,132.087 129.935,133.752M331.335,145.631C327.997,147.307 318.719,169.686 319.716,173.658C321.344,180.146 330.706,182.845 335.01,178.067C336.65,176.247 341.389,164.981 344.702,155.031C345.519,152.579 342.956,146.753 340.477,145.426C337.823,144.006 334.42,144.082 331.335,145.631M217.913,154.326C209.633,155.543 201.41,158.279 192.958,162.632C181.787,168.383 168.546,181.625 162.76,192.831C152.689,212.337 151.088,232.958 158.054,253.441C166.135,277.2 185.816,294.86 211.411,301.322C218.51,303.115 221.809,303.379 231.893,302.97C252.117,302.147 267.226,295.544 281.463,281.308C295.699,267.072 302.302,251.962 303.124,231.738C303.534,221.654 303.269,218.355 301.477,211.256C293.657,180.282 269.886,158.708 238.814,154.387C230.5,153.231 225.464,153.216 217.913,154.326M219.782,172.359C178.812,179.661 158.82,225.69 181.736,259.952C200.982,288.728 240.716,293.733 266.277,270.601C293.707,245.78 290.991,202.647 260.697,181.947C248.732,173.773 232.801,170.039 219.782,172.359M55.835,188.764C47.21,195.104 45.6,196.725 45.055,199.634C44.339,203.452 46.445,208.637 49.131,209.668C53.699,211.42 57.354,210.228 65.668,204.275C70.285,200.967 75.076,197.121 76.312,195.727C81.438,189.947 77.546,181.314 69.815,181.314C66.61,181.314 64.296,182.547 55.835,188.764M397.731,195.756C396.175,197.312 395.278,199.348 395.278,201.326C395.278,205.267 402.896,224.899 405.394,227.398C407.257,229.26 412.475,229.895 415.715,228.651C417.655,227.906 420.256,223.165 420.256,220.376C420.256,217.006 412.21,197.329 409.984,195.254C406.914,192.394 400.844,192.642 397.731,195.756M0,228.272C0,234.042 0.165,236.402 0.367,233.517C0.568,230.633 0.568,225.911 0.367,223.027C0.165,220.142 0,222.502 0,228.272M338.495,263.967C331.298,267.934 327.718,270.535 326.674,272.552C323.766,278.176 327.924,285.221 334.152,285.221C339.301,285.221 357.837,275.05 359.877,271.105C362.933,265.195 358.623,258.227 351.932,258.261C350.044,258.27 344.759,260.514 338.495,263.967M82.884,271.628C80.662,273.539 80.104,274.864 80.104,278.228C80.104,284.691 82.958,286.564 95.872,288.575C110.099,290.792 111.184,290.718 114.605,287.297C118.23,283.671 118.447,279.411 115.199,275.633C113.18,273.288 111.418,272.688 101.96,271.128C87.629,268.765 86.167,268.804 82.884,271.628M96.285,331.253C92.702,333.145 91,335.34 82.632,348.862C79.485,353.946 74.523,359.04 69.559,362.278L67.07,363.901L76.562,373.65C94.667,392.244 113.303,406.13 134.152,416.558C206.629,452.809 290.943,445.029 355.809,396.103C364.844,389.288 384.288,371.623 384.288,370.229C384.288,369.819 382.077,368.051 379.375,366.299C373.876,362.737 369.335,356.536 366.318,348.474C361.692,336.109 358.508,332.218 351.234,330.039C347.827,329.018 346.851,329.177 341.985,331.558C335.024,334.964 330.79,340.972 324.973,355.693C318.522,372.02 314.723,378.897 309.009,384.593C295.495,398.067 275.795,399.533 261.405,388.135C259.297,386.466 254.41,380.454 250.544,374.774C241.296,361.188 236.381,358.027 227.982,360.262C221.477,361.993 215.787,368.797 208.455,383.613C197.726,405.292 188.445,412.358 170.478,412.528C163.1,412.597 161.237,412.24 156.277,409.805C143.262,403.413 137.695,392.977 126.061,353.161C124.055,346.292 121.312,338.995 119.968,336.945C115.171,329.632 104.304,327.02 96.285,331.253"
      style="fill:url(#_Linear1);" />
  </g>
</svg>